<svg xmlns="http://www.w3.org/2000/svg" width="173" height="121" fill="none" viewBox="0 0 173 121">
  <title>ROSE Stake logo</title>
  <path fill="white" d="M79.3 42.7a3 3 0 0 1 2.8-2h1.1c1.3 0 2.4.8 2.8 2l12.7 36.6c.4 1.3-.5 2.6-1.8 2.6-.9 0-1.6-.5-1.9-1.3l-3.2-9.4c-.3-.7-1-1.3-1.9-1.3H75.4c-.8 0-1.6.6-1.8 1.3l-3.3 9.4c-.3.8-1 1.3-1.9 1.3-1.3 0-2.3-1.3-1.8-2.6l12.7-36.6zm-2.6 23.7h11.9c.7 0 1.2-.7 1-1.4l-4.5-13-1.4-4.5c-.3-1-1.7-1-2 0l-1.5 4.6L75.7 65c-.2.7.3 1.4 1 1.4zM27.7 62.1q-2.2-1.3-4.8-2.1-2.6-.8-5.2-1.5-2.6-.6-4.8-1.5-2.2-.8-3.5-2.2Q8 53.5 8 51.2q0-3.4 2.6-5.5 2.6-2 6.9-2 3 0 5.4 1.1 2.3 1.1 3.7 3 .9 1.3 1.3 2.9c.1.9.9 1.6 1.8 1.6h.1c1.2 0 2.1-1.1 1.9-2.2q-.4-2.4-1.7-4.2-1.8-2.7-5.1-4.2-3.2-1.5-7.4-1.5c-2.8 0-5.2.4-7.2 1.4Q7.2 43 5.5 45.5 3.8 48 3.8 51.3q0 3 1.3 5 1.4 1.9 3.6 3.1 2.2 1.1 4.8 1.9 2.7.8 5.2 1.5 2.6.7 4.8 1.7 2.2.9 3.6 2.4 1.3 1.6 1.3 4.1 0 3.7-2.8 5.8-2.8 2.1-7.2 2.1-5.1 0-8.2-3-2.6-2.5-3-6.8c-.2-1-1-1.8-2-1.8a2 2 0 0 0-2 2.2q.4 3.5 1.9 6.1Q7 79 10.5 80.7q3.4 1.7 7.9 1.7 4 .1 7.2-1.3 3.3-1.4 5.1-4 1.9-2.6 1.9-6.3 0-3.2-1.3-5.3-1.4-2.2-3.6-3.4zm9.2-17.6h10.9c.7 0 1.3.6 1.3 1.3v34.1c0 .9.8 1.7 1.7 1.7h.4c1 0 1.8-.8 1.8-1.7V45.8c0-.7.6-1.3 1.3-1.3h10.9c.9 0 1.7-.8 1.7-1.8 0-.9-.8-1.7-1.7-1.7H36.9c-.9 0-1.7.8-1.7 1.7 0 1 .8 1.8 1.7 1.8zm112.5 17.8h14.2c.9 0 1.7-.8 1.7-1.8 0-.9-.8-1.7-1.7-1.7h-14.2c-1 0-1.8-.8-1.8-1.8V46.1c0-.9.8-1.7 1.8-1.7h21.3c1 0 1.8-.8 1.8-1.8s-.8-1.7-1.8-1.7h-24.3c-1.5 0-2.7 1.2-2.7 2.7v35.5c0 1.4 1.2 2.6 2.7 2.6h24.5c1 0 1.8-.7 1.8-1.7s-.8-1.8-1.8-1.8h-21.5c-1 0-1.8-.8-1.8-1.7V64c0-.9.8-1.7 1.8-1.7zm-13.8 16.1-14.9-20.2c-.6-.8-.5-1.8.1-2.5L133 43.4c1.2-1.2.4-3.2-1.3-3.2-.5 0-1 .2-1.3.5L117 54.1l-2.5 2.7c-1.2 1.2-3.3.3-3.3-1.4l.1-3.2V42c0-1-.8-1.8-1.9-1.8h-.1c-1.1 0-1.9.8-1.9 1.8v37.5c0 1.1.8 1.9 1.9 1.9h.1c1.1 0 1.9-.8 1.9-1.9V66.2c0-.5.2-1 .5-1.4l3.5-3.5c.9-.8 2.2-.7 2.9.2l14.1 19.1c.4.5.9.8 1.5.8h.3c1.6 0 2.4-1.7 1.5-3z"/>
</svg>
