<svg width="244" height="86" viewBox="0 0 244 86" fill="none" xmlns="http://www.w3.org/2000/svg">
  <circle cx="38.0018" cy="43" r="12" stroke="black" stroke-width="5"/>
  <path d="M38.0018 71C34.6881 71 32.0018 73.6863 32.0018 77C32.0018 80.3137 34.6881 83 38.0018 83C41.3155 83 44.0018 80.3137 44.0018 77C44.0018 73.6863 41.3155 71 38.0018 71ZM38.0018 71V55" stroke="black" stroke-width="5"/>
  <path d="M38.0018 15C41.3155 15 44.0018 12.3137 44.0018 9C44.0018 5.68629 41.3155 3 38.0018 3C34.6881 3 32.0018 5.68629 32.0018 9C32.0018 12.3137 34.6881 15 38.0018 15ZM38.0018 15L38.0018 31" stroke="black" stroke-width="5"/>
  <path d="M62.2504 57.0001C60.5935 59.8699 61.5768 63.5394 64.4465 65.1963C67.3163 66.8531 70.9858 65.8699 72.6427 63.0001C74.2995 60.1304 73.3163 56.4608 70.4465 54.804C67.5768 53.1471 63.9072 54.1304 62.2504 57.0001ZM62.2504 57.0001L48.394 49.0001" stroke="black" stroke-width="5"/>
  <path d="M13.753 29.0004C15.4098 26.1306 14.4266 22.4611 11.5568 20.8042C8.68706 19.1473 5.01752 20.1306 3.36067 23.0003C1.70381 25.8701 2.68706 29.5396 5.55682 31.1965C8.42657 32.8534 12.0961 31.8701 13.753 29.0004ZM13.753 29.0004L27.6094 37.0004" stroke="black" stroke-width="5"/>
  <path d="M62.2504 29.0001C63.9072 31.8699 67.5768 32.8531 70.4465 31.1963C73.3163 29.5394 74.2995 25.8699 72.6427 23.0001C70.9858 20.1304 67.3163 19.1471 64.4465 20.804C61.5768 22.4608 60.5935 26.1304 62.2504 29.0001ZM62.2504 29.0001L48.394 37.0001" stroke="black" stroke-width="5"/>
  <path d="M13.753 57.0004C12.0961 54.1306 8.42657 53.1473 5.55682 54.8042C2.68706 56.4611 1.70381 60.1306 3.36066 63.0003C5.01752 65.8701 8.68706 66.8534 11.5568 65.1965C14.4266 63.5396 15.4098 59.8701 13.753 57.0004ZM13.753 57.0004L27.6094 49.0004" stroke="black" stroke-width="5"/>
  <g clip-path="url(#clip0_14086_23676)">
    <path d="M131.643 31L143.643 43L131.643 55V46H119.643V40H131.643V31ZM110.643 40C108.993 40 107.643 41.35 107.643 43C107.643 44.65 108.993 46 110.643 46C112.293 46 113.643 44.65 113.643 43C113.643 41.35 112.293 40 110.643 40ZM98.6427 40C96.9927 40 95.6427 41.35 95.6427 43C95.6427 44.65 96.9927 46 98.6427 46C100.293 46 101.643 44.65 101.643 43C101.643 41.35 100.293 40 98.6427 40Z" fill="#1B0F33"/>
  </g>
  <path d="M220.458 6.73019C220.279 6.63727 220.097 6.5543 219.911 6.47465C219.045 6.08969 218.172 5.72131 217.276 5.39608C214.77 4.48345 212.148 3.81971 209.44 3.42479C207.545 3.14934 205.611 3 203.643 3C181.587 3 163.643 20.9441 163.643 43C163.643 60.1841 174.535 74.8659 189.777 80.5176C191.569 81.1814 193.424 81.719 195.326 82.1239C198.011 82.6947 200.792 83 203.643 83C218.836 83 232.077 74.4843 238.844 61.9762C241.9 56.3278 243.639 49.863 243.639 43C243.639 32.1181 239.265 22.2417 232.19 15.0202C228.831 11.5954 224.859 8.77781 220.458 6.73019ZM197.258 75.4965C188.991 75.4965 181.082 71.4444 175.573 64.3988C170.848 58.1663 168.349 50.7259 168.349 42.8905C168.349 29.5096 175.766 17.8278 186.707 11.7447C186.996 11.5821 187.285 11.9671 187.043 12.1961C186.044 13.1386 185.085 14.1441 184.169 15.2127C177.83 22.6266 174.176 32.7154 174.143 42.8905C174.143 56.1021 182.981 70.3625 197.261 70.3625C210.005 70.3625 220.369 58.0369 220.369 42.8905C220.369 35.7719 217.983 28.9388 213.907 23.8678C213.765 23.6886 213.934 23.4364 214.153 23.4995C221.043 25.5371 226.19 33.4588 226.19 42.8905C226.19 51.2204 223.166 59.5104 217.9 65.64C212.437 71.992 205.106 75.4931 197.258 75.4965ZM191.712 42.8838C191.712 33.4489 196.295 25.3048 202.866 21.651C203.679 21.1963 204.685 21.256 205.435 21.8036L206.839 22.8291C212.6 27.0338 216.181 34.7199 216.181 42.8938C216.181 52.3288 211.598 60.4728 205.027 64.13C204.214 64.5847 203.211 64.5283 202.458 63.9773L201.051 62.9519C195.29 58.7471 191.709 51.0577 191.709 42.8872L191.712 42.8838ZM239.547 42.8838C239.547 56.2647 232.127 67.9465 221.189 74.0296C220.9 74.1922 220.611 73.8073 220.853 73.5783C221.852 72.6358 222.811 71.6302 223.727 70.5583C230.066 63.1444 233.72 53.0589 233.753 42.8805C233.753 29.6689 224.915 15.4085 210.635 15.4085C197.895 15.4085 187.527 27.7341 187.527 42.8805C187.527 49.9991 189.913 56.8322 193.989 61.9065C194.131 62.0857 193.962 62.3379 193.743 62.2749C186.854 60.2372 181.703 52.3188 181.703 42.8905C181.703 34.5639 184.726 26.2739 189.993 20.1443C195.456 13.789 202.79 10.2911 210.642 10.2911C218.902 10.2911 226.81 14.3399 232.336 21.4021C237.058 27.6213 239.551 35.0485 239.544 42.8805L239.547 42.8838Z" fill="#000F9B"/>
  <defs>
    <clipPath id="clip0_14086_23676">
      <rect width="72" height="72" fill="white" transform="translate(83.6427 7)"/>
    </clipPath>
  </defs>
</svg>
