<svg xmlns="http://www.w3.org/2000/svg" width="156" height="120" fill="none" viewBox="300 0 156 120">
  <title>ROSE Move logo</title>
  <path fill="#fff" d="M372.78 42.55a15.25 15.25 0 0 0-8.91-2.63c-3.43 0-6.4.88-8.92 2.63a16.88 16.88 0 0 0-5.84 7.44 28.3 28.3 0 0 0-2.07 11.24c0 4.3.69 8.03 2.07 11.21a17.16 17.16 0 0 0 5.84 7.44 15.09 15.09 0 0 0 8.92 2.65c3.42 0 6.4-.88 8.91-2.65a17.18 17.18 0 0 0 5.85-7.44c1.38-3.18 2.06-6.92 2.06-11.2 0-4.3-.69-8.05-2.06-11.26a16.9 16.9 0 0 0-5.85-7.43zm2.15 28a14.26 14.26 0 0 1-4.4 6.24 10.5 10.5 0 0 1-6.67 2.21c-2.56 0-4.78-.73-6.67-2.21a14.26 14.26 0 0 1-4.4-6.23 25.6 25.6 0 0 1-1.56-9.33c0-3.54.53-6.65 1.56-9.32a14.18 14.18 0 0 1 4.4-6.23 10.5 10.5 0 0 1 6.67-2.21c2.55 0 4.78.74 6.67 2.21a14.24 14.24 0 0 1 4.4 6.2 25.58 25.58 0 0 1 1.57 9.36c0 3.58-.53 6.65-1.57 9.33v-.01zm56.93-8.31h14.76c2.196-.165 2.196-3.385 0-3.55h-14.76a1.3 1.3 0 0 1-1.3-1.3V45.48c0-.71.59-1.3 1.3-1.3h21.96c2.122-.226 2.122-3.314 0-3.54h-24.2a2.95 2.95 0 0 0-2.95 2.94v35.31a2.95 2.95 0 0 0 2.94 2.95h24.45c2.196-.165 2.196-3.385 0-3.55h-22.2a1.3 1.3 0 0 1-1.3-1.3V63.52c0-.71.59-1.3 1.3-1.3zm-99.59-21.47a3.1 3.1 0 0 0-3.01 2.34l-6.73 26.61-.74 3.41c-.15.65-1.06.64-1.2 0l-.7-3.4-6.63-26.6a3.1 3.1 0 0 0-3-2.35h-.1a3.1 3.1 0 0 0-3.1 2.86l-2.83 36c-.491 2.756 3.834 3.089 3.77.29l1.98-27.43.14-2.26c.05-.81 1.22-.9 1.39-.1l.47 2.36 6.69 27.3c.607 2.516 4.183 2.524 4.8.01l6.84-27.31.56-2.46c.18-.8 1.34-.69 1.38.12l.11 2.34 2.04 27.43c.07.98.9 1.75 1.88 1.75h.06c1.11 0 1.98-.95 1.89-2.05l-2.89-36a3.1 3.1 0 0 0-3.09-2.85zm72.89 29.66-1.23 3.88c-.37 1.15-2 1.15-2.37 0l-1.25-4-10.17-28.41c-.27-.76-1-1.27-1.81-1.27h-.12a1.92 1.92 0 0 0-1.82 2.56l12.74 36.13c1.151 3.378 5.929 3.378 7.08 0l12.74-36.13c.853-2.42-2.777-3.7-3.63-1.28l-10.17 28.53z"/>
</svg>
