<svg width="244" height="86" viewBox="0 0 244 86" fill="none" xmlns="http://www.w3.org/2000/svg">
  <path d="M57.1763 6.73019C56.9971 6.63727 56.8146 6.5543 56.6287 6.47465C55.7626 6.08969 54.8898 5.72131 53.9937 5.39608C51.4881 4.48345 48.8664 3.81971 46.1583 3.42479C44.2634 3.14934 42.3286 3 40.3606 3C18.3047 3 0.360596 20.9441 0.360596 43C0.360596 60.1841 11.2525 74.8659 26.4952 80.5176C28.2873 81.1814 30.1424 81.719 32.044 82.1239C34.7288 82.6947 37.5099 83 40.3606 83C55.5535 83 68.795 74.4843 75.5618 61.9762C78.6183 56.3278 80.3573 49.863 80.3573 43C80.3573 32.1181 75.9833 22.2417 68.9079 15.0202C65.5493 11.5954 61.5769 8.77781 57.1763 6.73019ZM33.9755 75.4965C25.7086 75.4965 17.8002 71.4444 12.2912 64.3988C7.56544 58.1663 5.06648 50.7259 5.06648 42.8905C5.06648 29.5096 12.4837 17.8278 23.4254 11.7447C23.7141 11.5821 24.0028 11.9671 23.7606 12.1961C22.7617 13.1386 21.8026 14.1441 20.8866 15.2127C14.5479 22.6266 10.8941 32.7154 10.8609 42.8905C10.8609 56.1021 19.6985 70.3625 33.9788 70.3625C46.7225 70.3625 57.0867 58.0369 57.0867 42.8905C57.0867 35.7719 54.7006 28.9388 50.6253 23.8678C50.4826 23.6886 50.6518 23.4364 50.8708 23.4995C57.7604 25.5371 62.9077 33.4588 62.9077 42.8905C62.9077 51.2204 59.8844 59.5104 54.6176 65.64C49.1551 71.992 41.8241 75.4931 33.9755 75.4965ZM28.43 42.8838C28.43 33.4489 33.0131 25.3048 39.584 21.651C40.3971 21.1963 41.4027 21.256 42.1527 21.8036L43.5565 22.8291C49.3177 27.0338 52.8986 34.7199 52.8986 42.8938C52.8986 52.3288 48.3155 60.4728 41.7445 64.13C40.9314 64.5847 39.9292 64.5283 39.1758 63.9773L37.7687 62.9519C32.0075 58.7471 28.4266 51.0577 28.4266 42.8872L28.43 42.8838ZM76.2654 42.8838C76.2654 56.2647 68.8448 67.9465 57.9064 74.0296C57.6177 74.1922 57.329 73.8073 57.5713 73.5783C58.5702 72.6358 59.5293 71.6302 60.4452 70.5583C66.7839 63.1444 70.4378 53.0589 70.4709 42.8805C70.4709 29.6689 61.6333 15.4085 47.3531 15.4085C34.6127 15.4085 24.2451 27.7341 24.2451 42.8805C24.2451 49.9991 26.6312 56.8322 30.7066 61.9065C30.8493 62.0857 30.68 62.3379 30.461 62.2749C23.5714 60.2372 18.4208 52.3188 18.4208 42.8905C18.4208 34.5639 21.4441 26.2739 26.7109 20.1443C32.1734 13.789 39.5077 10.2911 47.3597 10.2911C55.6199 10.2911 63.5283 14.3399 69.0539 21.4021C73.7764 27.6213 76.2687 35.0485 76.262 42.8805L76.2654 42.8838Z" fill="#000F9B"/>
  <g clip-path="url(#clip0_14086_23822)">
    <path d="M136.357 31L148.357 43L136.357 55V46H124.357V40H136.357V31ZM115.357 40C113.707 40 112.357 41.35 112.357 43C112.357 44.65 113.707 46 115.357 46C117.007 46 118.357 44.65 118.357 43C118.357 41.35 117.007 40 115.357 40ZM103.357 40C101.707 40 100.357 41.35 100.357 43C100.357 44.65 101.707 46 103.357 46C105.007 46 106.357 44.65 106.357 43C106.357 41.35 105.007 40 103.357 40Z" fill="#1B0F33"/>
  </g>
  <circle cx="205.998" cy="43" r="12" stroke="black" stroke-width="5"/>
  <path d="M205.998 71C202.685 71 199.998 73.6863 199.998 77C199.998 80.3137 202.685 83 205.998 83C209.312 83 211.998 80.3137 211.998 77C211.998 73.6863 209.312 71 205.998 71ZM205.998 71V55" stroke="black" stroke-width="5"/>
  <path d="M205.998 15C209.312 15 211.998 12.3137 211.998 9C211.998 5.68629 209.312 3 205.998 3C202.685 3 199.998 5.68629 199.998 9C199.998 12.3137 202.685 15 205.998 15ZM205.998 15L205.998 31" stroke="black" stroke-width="5"/>
  <path d="M230.247 57.0001C228.59 59.8699 229.573 63.5394 232.443 65.1963C235.313 66.8531 238.982 65.8699 240.639 63.0001C242.296 60.1304 241.313 56.4608 238.443 54.804C235.573 53.1471 231.904 54.1304 230.247 57.0001ZM230.247 57.0001L216.391 49.0001" stroke="black" stroke-width="5"/>
  <path d="M181.75 29.0004C183.406 26.1306 182.423 22.4611 179.553 20.8042C176.684 19.1473 173.014 20.1306 171.357 23.0003C169.7 25.8701 170.684 29.5396 173.553 31.1965C176.423 32.8534 180.093 31.8701 181.75 29.0004ZM181.75 29.0004L195.606 37.0004" stroke="black" stroke-width="5"/>
  <path d="M230.247 29.0001C231.904 31.8699 235.573 32.8531 238.443 31.1963C241.313 29.5394 242.296 25.8699 240.639 23.0001C238.982 20.1304 235.313 19.1471 232.443 20.804C229.573 22.4608 228.59 26.1304 230.247 29.0001ZM230.247 29.0001L216.391 37.0001" stroke="black" stroke-width="5"/>
  <path d="M181.75 57.0004C180.093 54.1306 176.423 53.1473 173.553 54.8042C170.684 56.4611 169.7 60.1306 171.357 63.0003C173.014 65.8701 176.684 66.8534 179.553 65.1965C182.423 63.5396 183.406 59.8701 181.75 57.0004ZM181.75 57.0004L195.606 49.0004" stroke="black" stroke-width="5"/>
  <defs>
    <clipPath id="clip0_14086_23822">
      <rect width="72" height="72" fill="white" transform="translate(88.3573 7)"/>
    </clipPath>
  </defs>
</svg>
