<svg width="320" height="200" viewBox="0 0 320 200" fill="none" xmlns="http://www.w3.org/2000/svg">
  <rect width="100%" height="100%" fill="#F4F2F7"/>
  <path d="M51.0002 90.5067H66.2536V75.2534H51.0002V90.5067ZM73.8802 136.267H89.1336V121.013H73.8802V136.267ZM51.0002 136.267H66.2536V121.013H51.0002V136.267ZM51.0002 113.387H66.2536V98.1334H51.0002V113.387ZM73.8802 113.387H89.1336V98.1334H73.8802V113.387ZM96.7602 75.2534V90.5067H112.014V75.2534H96.7602ZM73.8802 90.5067H89.1336V75.2534H73.8802V90.5067ZM96.7602 113.387H112.014V98.1334H96.7602V113.387ZM96.7602 136.267H112.014V121.013H96.7602V136.267Z" fill="#1B0F33"/>
  <path d="M175.267 93.76L187.267 105.76L175.267 117.76V108.76H163.267V102.76H175.267V93.76ZM154.267 102.76C152.617 102.76 151.267 104.11 151.267 105.76C151.267 107.41 152.617 108.76 154.267 108.76C155.917 108.76 157.267 107.41 157.267 105.76C157.267 104.11 155.917 102.76 154.267 102.76ZM142.267 102.76C140.617 102.76 139.267 104.11 139.267 105.76C139.267 107.41 140.617 108.76 142.267 108.76C143.917 108.76 145.267 107.41 145.267 105.76C145.267 104.11 143.917 102.76 142.267 102.76Z" fill="#1B0F33"/>
  <path d="M260.091 82.1014C257.11 79.2024 253.586 76.8235 249.681 75.091C249.521 75.0145 249.36 74.9418 249.196 74.8768C248.429 74.5517 247.655 74.2381 246.86 73.9627C244.637 73.194 242.309 72.6318 239.905 72.2952C238.223 72.0619 236.506 71.9357 234.76 71.9357C215.188 71.9357 199.267 87.1077 199.267 105.76C199.267 120.289 208.931 132.708 222.455 137.485C224.045 138.047 225.69 138.502 227.38 138.842C229.764 139.324 232.228 139.584 234.76 139.584C248.24 139.584 259.991 132.383 265.995 121.808C268.708 117.031 270.253 111.566 270.253 105.76C270.253 96.5581 266.372 88.2053 260.091 82.1014ZM209.854 123.858C205.66 118.588 203.445 112.296 203.445 105.668C203.445 94.3514 210.027 84.4764 219.735 79.3324C219.991 79.1947 220.244 79.5198 220.032 79.711C219.145 80.5065 218.294 81.3594 217.479 82.262C211.853 88.5342 208.61 97.063 208.582 105.668C208.582 116.84 216.424 128.898 229.093 128.898C240.399 128.898 249.597 118.477 249.597 105.668C249.597 99.6484 247.478 93.8695 243.866 89.5822C243.738 89.4292 243.89 89.215 244.087 89.2724C250.199 90.9934 254.77 97.694 254.77 105.668C254.77 112.713 252.089 119.723 247.414 124.906C242.566 130.279 236.06 133.239 229.097 133.239C221.761 133.239 214.742 129.813 209.854 123.854V123.858ZM260.228 87.4978C264.418 92.7565 266.629 99.0364 266.625 105.661C266.625 116.977 260.043 126.856 250.335 131.996C250.079 132.134 249.826 131.809 250.038 131.618C250.925 130.822 251.776 129.969 252.591 129.067C258.217 122.798 261.46 114.27 261.488 105.661C261.488 94.4891 253.646 82.4303 240.977 82.4303C229.671 82.4303 220.473 92.8522 220.473 105.661C220.473 111.68 222.592 117.459 226.208 121.747C226.336 121.9 226.184 122.114 225.987 122.056C219.875 120.335 215.304 113.639 215.304 105.664C215.304 98.6234 217.985 91.613 222.66 86.4308C227.508 81.0573 234.014 78.0971 240.985 78.0971C248.313 78.0971 255.332 81.52 260.236 87.494H260.228V87.4978ZM245.889 105.668C245.889 113.646 241.823 120.534 235.992 123.624C235.27 124.007 234.379 123.961 233.713 123.494L232.464 122.626C227.352 119.069 224.177 112.568 224.177 105.661C224.177 97.6826 228.243 90.7946 234.074 87.7043C234.796 87.3219 235.687 87.3678 236.353 87.8344L237.601 88.7025C242.714 92.2594 245.893 98.7573 245.893 105.668H245.889Z" fill="#1B0F33"/>
</svg>
