<svg width="339" height="73" viewBox="0 0 339 73" fill="none" xmlns="http://www.w3.org/2000/svg">
<!-- ROSE (ON)RAMP -->
<g clip-path="url(#clip0_13015_420286)">
<path d="M241.864 15.6882H185.106C181.032 15.6882 177.73 18.8378 177.73 22.7231V45.2732C177.73 49.1584 181.032 52.3081 185.106 52.3081H241.864C245.938 52.3081 249.241 49.1584 249.241 45.2732V22.7231C249.241 18.8378 245.938 15.6882 241.864 15.6882Z" fill="white"/>
<path d="M123.559 23.5919C121.959 22.6155 120.093 22.1311 117.952 22.1311C115.812 22.1311 113.937 22.6193 112.329 23.5919C110.72 24.5683 109.471 25.9638 108.592 27.7783C107.709 29.5927 107.27 31.757 107.27 34.2673C107.27 36.7775 107.709 38.9072 108.592 40.7255C109.475 42.54 110.72 43.9431 112.329 44.9311C113.937 45.919 115.816 46.4111 117.952 46.4111C120.088 46.4111 121.959 45.919 123.559 44.9311C125.16 43.9431 126.405 42.5438 127.296 40.7255C128.191 38.9111 128.634 36.7583 128.634 34.2673C128.634 31.7762 128.187 29.5658 127.296 27.759C126.401 25.9561 125.156 24.5645 123.559 23.5881V23.5919ZM122.624 38.642C122.164 39.8529 121.532 40.7755 120.721 41.4175C119.911 42.0556 118.988 42.3747 117.952 42.3747C116.916 42.3747 115.989 42.0556 115.167 41.4175C114.344 40.7793 113.703 39.8529 113.244 38.642C112.784 37.431 112.554 35.9741 112.554 34.2711C112.554 32.5681 112.784 31.1112 113.244 29.9002C113.703 28.6893 114.34 27.7667 115.167 27.1247C115.989 26.4866 116.916 26.1675 117.952 26.1675C118.988 26.1675 119.907 26.4866 120.721 27.1247C121.532 27.7629 122.169 28.6816 122.624 29.881C123.084 31.0804 123.313 32.5451 123.313 34.2711C123.313 35.9972 123.084 37.431 122.624 38.642Z" fill="white"/>
<path d="M158.312 40.9254V36.9274C158.312 36.3508 158.804 35.8818 159.409 35.8818H165.75C166.354 35.8818 166.846 35.4128 166.846 34.8362V32.891C166.846 32.3144 166.354 31.8454 165.75 31.8454H159.409C158.804 31.8454 158.312 31.3764 158.312 30.7997V27.6091C158.312 27.0324 158.804 26.5634 159.409 26.5634H170.123C170.728 26.5634 171.22 26.0944 171.22 25.5178V23.5726C171.22 22.996 170.728 22.527 170.123 22.527H154.261C153.657 22.527 153.165 22.996 153.165 23.5726V44.9541C153.165 45.5307 153.657 45.9997 154.261 45.9997H170.265C170.869 45.9997 171.361 45.5307 171.361 44.9541V43.0089C171.361 42.4323 170.869 41.9633 170.265 41.9633H159.409C158.804 41.9633 158.312 41.4943 158.312 40.9177V40.9254Z" fill="white"/>
<path d="M146.589 34.0173C145.803 33.4906 144.944 33.0754 144.013 32.7718C143.086 32.4681 142.151 32.2105 141.211 31.9991C140.272 31.7876 139.405 31.5608 138.619 31.3263C137.833 31.0918 137.205 30.7843 136.733 30.3999C136.261 30.0193 136.027 29.5157 136.027 28.8853C136.027 28.0126 136.374 27.3399 137.067 26.8671C137.761 26.3942 138.636 26.1597 139.696 26.1597C140.425 26.1597 141.099 26.302 141.723 26.5788C142.344 26.8594 142.864 27.2669 143.275 27.8051C143.324 27.8666 143.368 27.9281 143.408 27.9934C143.618 28.324 143.981 28.5355 144.384 28.5355H147.468C148.25 28.5355 148.806 27.7897 148.524 27.0939C148.524 27.0939 148.524 27.0862 148.52 27.0823C148.306 26.5672 148.032 26.0905 147.697 25.6523C146.827 24.5067 145.694 23.6341 144.295 23.0306C142.896 22.4232 141.361 22.1233 139.692 22.1233C137.882 22.1233 136.306 22.427 134.967 23.0306C133.629 23.6341 132.589 24.4606 131.847 25.5024C131.106 26.5442 130.735 27.7166 130.735 29.016C130.735 30.3153 130.968 31.3071 131.44 32.1259C131.912 32.9447 132.541 33.6021 133.327 34.0942C134.113 34.5862 134.979 34.9899 135.919 35.3051C136.858 35.6203 137.793 35.8894 138.72 36.1124C139.647 36.3353 140.506 36.5775 141.296 36.8351C142.082 37.0926 142.711 37.4232 143.183 37.8269C143.654 38.2305 143.888 38.7687 143.888 39.4414C143.888 40.3602 143.529 41.0791 142.812 41.5942C142.094 42.1093 141.135 42.3669 139.938 42.3669C138.458 42.3669 137.329 41.9517 136.551 41.1214C136.205 40.7523 135.939 40.3064 135.749 39.7913C135.592 39.3646 135.169 39.0762 134.693 39.0762H131.823C131.073 39.0762 130.541 39.7605 130.743 40.4486C130.932 41.0983 131.19 41.7057 131.517 42.2631C132.291 43.5855 133.399 44.6042 134.83 45.3231C136.265 46.0419 137.97 46.3995 139.942 46.3995C141.727 46.3995 143.32 46.1034 144.718 45.5076C146.117 44.9156 147.218 44.0968 148.016 43.0512C148.814 42.0094 149.213 40.7946 149.213 39.403C149.213 38.0114 148.971 36.9542 148.491 36.0893C148.008 35.2282 147.375 34.5324 146.589 34.0057V34.0173Z" fill="white"/>
<path d="M100.789 37.2042C100.45 36.6852 100.611 36.0009 101.151 35.6703C101.655 35.359 102.071 35.0014 102.562 34.5901C103.409 33.8828 104.054 33.0986 104.501 32.2375C104.949 31.3764 105.17 30.4845 105.17 29.5657C105.17 28.0857 104.787 26.8248 104.026 25.783C103.26 24.7413 102.208 23.9378 100.869 23.3766C99.531 22.8153 97.9992 22.5347 96.286 22.5347H87.4821C86.8331 22.5347 86.3051 23.0383 86.3051 23.6572V44.8849C86.3051 45.5038 86.8331 46.0074 87.4821 46.0074H90.2434C90.8924 46.0074 91.4205 45.5038 91.4205 44.8849V38.0076C91.4205 37.3925 91.9445 36.8928 92.5895 36.8928H94.3873C94.7824 36.8928 95.1492 37.0773 95.3669 37.3925C96.4674 38.9725 99.5793 43.8393 100.619 45.4692C100.833 45.8036 101.212 46.0074 101.623 46.0074H104.421C105.344 46.0074 105.908 45.0386 105.42 44.2929L100.789 37.208V37.2042ZM96.2819 26.5673C96.9632 26.5673 97.5759 26.6903 98.1161 26.9363C98.6562 27.1823 99.0875 27.5322 99.402 27.9781C99.7204 28.4279 99.8776 28.9545 99.8776 29.5581C99.8776 30.2077 99.7003 30.7805 99.3496 31.2726C98.9989 31.7646 98.5151 32.1529 97.9024 32.4335C97.2897 32.7141 96.5722 32.8525 95.7498 32.8525H92.5895C91.9405 32.8525 91.4124 32.3489 91.4124 31.73V27.6859C91.4124 27.067 91.9405 26.5634 92.5895 26.5634H96.2819V26.5673Z" fill="white"/>
<path d="M61.0947 10.2179C58.0997 7.30398 54.5604 4.91289 50.6382 3.17147C50.4769 3.09458 50.3157 3.02154 50.1504 2.95619C49.3805 2.62943 48.6025 2.31421 47.8043 2.03743C45.5711 1.26474 43.2331 0.699645 40.8185 0.361355C39.1295 0.126859 37.4042 0 35.6507 0C15.9912 0 0 15.2499 0 33.9981C0 48.6022 9.70679 61.0843 23.2915 65.8858C24.8878 66.4509 26.5405 66.9083 28.2376 67.2505C30.632 67.7348 33.1071 67.9962 35.6507 67.9962C49.191 67.9962 60.994 60.7576 67.0244 50.1284C69.7494 45.327 71.3014 39.8336 71.3014 33.9981C71.3014 24.749 67.4033 16.3532 61.0947 10.2179ZM10.6339 52.1889C6.42148 46.8916 4.19633 40.5678 4.19633 33.9058C4.19633 22.5309 10.8073 12.6051 20.5584 7.43468C20.8164 7.29629 21.0703 7.62305 20.8567 7.81526C19.9658 8.61485 19.1113 9.47211 18.2929 10.3793C12.6414 16.6838 9.38431 25.2564 9.35609 33.9058C9.35609 45.1348 17.2328 57.2555 29.9588 57.2555C41.3143 57.2555 50.5535 46.7801 50.5535 33.9058C50.5535 27.8551 48.4251 22.0465 44.7972 17.7371C44.6682 17.5834 44.8214 17.3681 45.0189 17.4258C51.1582 19.1557 55.7496 25.8907 55.7496 33.9058C55.7496 40.9869 53.0568 48.0333 48.3606 53.2422C43.4911 58.6433 36.9568 61.6187 29.9629 61.6187C22.5941 61.6187 15.5438 58.1743 10.6339 52.185V52.1889ZM61.2318 15.6421C65.4402 20.9278 67.6613 27.24 67.6573 33.8982C67.6573 45.2732 61.0464 55.2027 51.2952 60.3693C51.0372 60.5077 50.7833 60.181 50.9969 59.9888C51.8878 59.1892 52.7424 58.3319 53.5607 57.4247C59.2122 51.124 62.4693 42.5515 62.4975 33.8982C62.4975 22.6693 54.6209 10.5485 41.8948 10.5485C30.5393 10.5485 21.3001 21.0239 21.3001 33.8982C21.3001 39.9489 23.4285 45.7575 27.0605 50.0669C27.1895 50.2206 27.0363 50.4359 26.8388 50.3783C20.6995 48.6484 16.1081 41.9172 16.1081 33.902C16.1081 26.8248 18.8009 19.7784 23.497 14.5695C28.3666 9.16842 34.9009 6.19301 41.9029 6.19301C49.2636 6.19301 56.3139 9.63357 61.2399 15.6382H61.2318V15.6421ZM46.8288 33.9058C46.8288 41.9249 42.7454 48.8483 36.8882 51.9544C36.1626 52.3388 35.2677 52.2927 34.5986 51.8237L33.3449 50.951C28.2094 47.3759 25.0208 40.8408 25.0208 33.8982C25.0208 25.8792 29.1042 18.9558 34.9614 15.8496C35.687 15.4652 36.5819 15.5113 37.251 15.9803L38.5047 16.853C43.6402 20.4281 46.8328 26.9594 46.8328 33.9058H46.8288Z" fill="white"/>
<path d="M269.92 33.3062C270.69 32.6796 271.283 31.9723 271.694 31.1804C272.105 30.3885 272.311 29.5543 272.311 28.6855C272.311 27.3669 271.964 26.2406 271.275 25.3026C270.585 24.3646 269.642 23.6496 268.449 23.1575C267.256 22.6655 265.909 22.4233 264.41 22.4233H256.146C255.533 22.4233 255.034 22.9 255.034 23.4843V44.735C255.034 45.3193 255.533 45.796 256.146 45.796H256.239C256.852 45.796 257.351 45.3193 257.351 44.735V36.3739C257.351 35.7896 257.851 35.3129 258.464 35.3129H260.52C261.225 35.3129 261.894 35.6243 262.326 36.1586L269.791 45.3808C270.001 45.6423 270.327 45.7922 270.674 45.7922C271.597 45.7922 272.121 44.7773 271.553 44.0815L265.192 36.2355C264.869 35.8395 265.099 35.2514 265.619 35.163C266.083 35.0861 266.615 34.9631 267.103 34.7747C268.215 34.4172 269.154 33.929 269.928 33.3024H269.92V33.3062ZM263.354 33.3408H258.577C257.9 33.3408 257.347 32.8142 257.347 32.1683V25.1911C257.347 24.7721 257.702 24.4338 258.142 24.4338H264.406C265.389 24.4338 266.288 24.6068 267.111 24.9528C267.929 25.2987 268.586 25.7831 269.078 26.4097C269.57 27.0363 269.815 27.7936 269.815 28.6855C269.815 29.6235 269.533 30.4423 268.973 31.1458C268.413 31.8493 267.651 32.3913 266.691 32.7719C265.732 33.1524 264.619 33.3408 263.358 33.3408H263.354Z" fill="white"/>
<path d="M281.999 23.1537L274.287 44.3621C274.033 45.0656 274.577 45.7999 275.359 45.7999H275.42C275.904 45.7999 276.331 45.5077 276.492 45.0733L278.576 39.3801C278.661 39.1533 278.887 38.9995 279.137 38.9995H288.573C288.827 38.9995 289.053 39.1533 289.138 39.3801L291.202 45.0656C291.359 45.5 291.79 45.7922 292.274 45.7922H292.33C293.108 45.7922 293.656 45.0579 293.402 44.3545L285.691 23.146C285.534 22.7116 285.103 22.4194 284.619 22.4194H283.075C282.591 22.4194 282.16 22.7116 282.003 23.146L281.999 23.1537ZM280.289 36.989C279.878 36.989 279.592 36.6046 279.729 36.2355L282.406 28.92L283.313 26.206C283.49 25.6793 284.272 25.6793 284.445 26.206L285.32 28.8508L287.997 36.2355C288.13 36.6046 287.844 36.989 287.432 36.989H280.285H280.289Z" fill="white"/>
<path d="M312.849 22.4233C312.329 22.4233 311.877 22.7578 311.748 23.2383L307.576 38.9611L307.362 39.8952C307.225 40.4949 306.33 40.4911 306.197 39.8914L305.996 38.9611L301.892 23.2421C301.767 22.7616 301.312 22.4233 300.792 22.4233H299.498C298.905 22.4233 298.413 22.8577 298.365 23.419L296.611 44.6274C296.559 45.2579 297.079 45.7922 297.744 45.7922C298.341 45.7922 298.833 45.354 298.877 44.7889L300.066 29.1161C300.11 28.451 301.106 28.3895 301.243 29.0392L301.259 29.1161L305.331 44.9657C305.456 45.4501 305.911 45.7884 306.431 45.7884H306.975C307.495 45.7884 307.951 45.4501 308.076 44.9696L312.248 29.1122L312.296 28.9085C312.45 28.2665 313.437 28.3472 313.469 29.0084V29.1122L314.695 44.785C314.739 45.3501 315.231 45.7884 315.828 45.7884H315.864C316.525 45.7884 317.049 45.2502 316.993 44.6197L315.207 23.4113C315.158 22.85 314.667 22.4156 314.078 22.4156H312.849V22.4233Z" fill="white"/>
<path d="M337.982 25.691C337.304 24.653 336.349 23.8496 335.12 23.2807C333.89 22.7117 332.447 22.4272 330.782 22.4272H322.752C322.128 22.4272 321.62 22.9116 321.62 23.5075V45.231C321.62 45.5463 321.886 45.8 322.216 45.8H323.377C323.708 45.8 323.974 45.5463 323.974 45.231V37.0237C323.974 36.7084 324.24 36.4547 324.57 36.4547H330.258C331.992 36.4547 333.515 36.1587 334.842 35.5667C336.164 34.9747 337.188 34.1482 337.913 33.0872C338.639 32.0262 339.002 30.7922 339.002 29.3891C339.002 27.986 338.663 26.7289 337.982 25.691ZM334.753 33.0565C333.604 33.9829 332.096 34.4442 330.222 34.4442H324.566C324.236 34.4442 323.97 34.1905 323.97 33.8753V24.999C323.97 24.6838 324.236 24.4301 324.566 24.4301H330.782C332.491 24.4301 333.866 24.8837 334.906 25.7871C335.946 26.6905 336.47 27.8899 336.47 29.3852C336.47 30.8806 335.898 32.1262 334.749 33.0526L334.753 33.0565Z" fill="white"/>
<path d="M187.92 20.7048H187.912C187.533 20.7048 187.183 20.9047 187.009 21.2199C185.824 23.3573 184.937 25.4178 184.353 27.4014C183.72 29.5426 183.406 31.7415 183.406 33.9981C183.406 36.2546 183.72 38.3958 184.353 40.5601C184.937 42.5629 185.824 44.635 187.009 46.7723C187.187 47.0914 187.538 47.2875 187.912 47.2875H187.92C188.69 47.2875 189.178 46.5071 188.819 45.8536C187.856 44.0929 187.13 42.363 186.631 40.6562C185.998 38.4919 185.683 36.27 185.683 33.9942C185.683 31.7185 185.998 29.4965 186.631 27.3322C187.126 25.6292 187.856 23.8955 188.819 22.1349C189.174 21.4813 188.69 20.701 187.92 20.701V20.7048Z" fill="#0500E1"/>
<path d="M230.95 36.1739L231.019 38.2075C231.055 39.3531 229.471 39.7875 228.862 38.8033L219.212 23.1421C218.894 22.6269 218.313 22.3117 217.688 22.3117H217.66C216.684 22.3117 215.894 23.0652 215.894 23.9955V44.5773C215.894 45.1886 216.414 45.6806 217.051 45.6806C217.692 45.6806 218.208 45.1847 218.208 44.5773V31.7877L218.144 29.8886C218.103 28.7469 219.688 28.3048 220.296 29.2889L229.983 44.8541C230.301 45.3654 230.878 45.6806 231.503 45.6806C232.478 45.6806 233.268 44.9272 233.268 43.9969V23.415C233.268 22.8038 232.748 22.3117 232.111 22.3117C231.47 22.3117 230.954 22.8076 230.954 23.415V36.1739H230.95Z" fill="#0500E1"/>
<path d="M238.691 20.7049C237.917 20.7049 237.433 21.493 237.796 22.1426C238.771 23.8994 239.505 25.6293 240.001 27.3323C240.634 29.4966 240.948 31.7185 240.948 33.9943C240.948 36.2701 240.634 38.492 240.001 40.6563C239.505 42.3593 238.767 44.0892 237.796 45.846C237.433 46.4995 237.917 47.2837 238.691 47.2837C239.066 47.2837 239.416 47.0877 239.594 46.7724C240.799 44.6312 241.694 42.5592 242.266 40.5525C242.887 38.3882 243.198 36.2009 243.198 33.9905C243.198 31.78 242.887 29.5389 242.266 27.3938C241.69 25.4102 240.799 23.3459 239.594 21.2085C239.416 20.8933 239.066 20.6972 238.691 20.6972V20.7049Z" fill="#0500E1"/>
<path d="M201.46 46.0842C199.425 46.0842 197.655 45.5807 196.16 44.5773C194.66 43.574 193.503 42.167 192.685 40.3602C191.866 38.5535 191.455 36.4315 191.455 33.9981C191.455 31.5647 191.862 29.4389 192.685 27.6205C193.503 25.8022 194.664 24.3953 196.16 23.4035C197.659 22.4117 199.425 21.9119 201.46 21.9119C203.496 21.9119 205.266 22.4078 206.761 23.4035C208.257 24.3953 209.418 25.8022 210.236 27.6205C211.054 29.4389 211.465 31.5647 211.465 33.9981C211.465 36.4315 211.054 38.5535 210.236 40.3602C209.418 42.167 208.257 43.574 206.761 44.5773C205.262 45.5807 203.496 46.0842 201.46 46.0842ZM201.46 44.0776C202.98 44.0776 204.302 43.6586 205.427 42.8205C206.552 41.9825 207.422 40.8062 208.043 39.2877C208.664 37.7692 208.974 36.0048 208.974 33.9981C208.974 31.9914 208.664 30.1962 208.043 28.6892C207.422 27.1823 206.552 26.0098 205.427 25.1718C204.302 24.3338 202.98 23.9147 201.46 23.9147C199.941 23.9147 198.619 24.3338 197.494 25.1718C196.369 26.0098 195.498 27.1862 194.878 28.7046C194.257 30.2231 193.947 31.9876 193.947 33.9942C193.947 36.0009 194.257 37.7654 194.878 39.2839C195.498 40.8023 196.369 41.9786 197.494 42.8167C198.619 43.6547 199.941 44.0737 201.46 44.0737V44.0776Z" fill="#0500E1"/>
</g>
<defs>
<clipPath id="clip0_13015_420286">
<rect width="339" height="67.9962" fill="white"/>
</clipPath>
</defs>
</svg>
