<svg width="262" height="51" viewBox="0 0 262 51" fill="none" xmlns="http://www.w3.org/2000/svg">
<!-- OASIS NETWORK -->
<g clip-path="url(#clip0_13015_420280)">
<path d="M43.6804 8.29292C41.6968 6.27058 39.3514 4.60684 36.7541 3.39861C36.6474 3.34369 36.5408 3.29523 36.431 3.24677C35.9206 3.0174 35.4037 2.80095 34.8771 2.61035C33.3975 2.07407 31.8501 1.67995 30.2509 1.44735C29.1332 1.28583 27.9895 1.19537 26.8265 1.19537C13.8074 1.19537 3.21436 11.7884 3.21436 24.8075C3.21436 34.9515 9.64318 43.6191 18.6435 46.9563C19.7032 47.3472 20.7951 47.667 21.9193 47.9029C23.5055 48.2388 25.1467 48.4197 26.8298 48.4197C35.7978 48.4197 43.6158 43.393 47.612 36.0079C49.4179 32.674 50.4452 28.8555 50.4452 24.8043C50.4452 18.3787 47.864 12.5476 43.6869 8.28645L43.6804 8.29292ZM10.2538 37.4423C7.46255 33.7627 5.98941 29.3723 5.98941 24.7462C5.98941 16.8474 10.3701 9.95019 16.8279 6.36104C16.9992 6.26735 17.1672 6.49349 17.025 6.62595C16.4338 7.1816 15.8685 7.77602 15.329 8.40921C11.5847 12.7866 9.42996 18.7405 9.41058 24.7494C9.41058 32.548 14.6279 40.9668 23.0565 40.9668C30.5772 40.9668 36.6991 33.6916 36.6991 24.7494C36.6991 20.5464 35.2906 16.5115 32.8839 13.52C32.7999 13.4134 32.9 13.2647 33.0292 13.3035C37.0965 14.5053 40.1365 19.1831 40.1365 24.7526C40.1365 29.6695 38.3532 34.5639 35.2422 38.1821C32.0181 41.9328 27.6891 44.0003 23.0565 44.0003C18.1783 44.0003 13.5069 41.6065 10.2538 37.4487V37.4423ZM43.7708 12.0597C46.5588 15.7297 48.0287 20.1168 48.0255 24.7397C48.0255 32.6384 43.6448 39.5357 37.187 43.1281C37.0157 43.2218 36.8477 42.9956 36.9899 42.8632C37.5811 42.3075 38.1464 41.7131 38.6859 41.0799C42.4302 36.7025 44.5849 30.7486 44.6043 24.7397C44.6043 16.9411 39.387 8.52228 30.9584 8.52228C23.4377 8.52228 17.3158 15.7975 17.3158 24.7397C17.3158 28.9427 18.7243 32.9776 21.1311 35.9724C21.2151 36.079 21.1149 36.2276 20.9857 36.1888C16.9184 34.9871 13.8784 30.3124 13.8784 24.7462C13.8784 19.8292 15.6617 14.935 18.7727 11.32C21.9969 7.56927 26.3258 5.50171 30.9617 5.50171C35.8366 5.50171 40.5047 7.89232 43.7708 12.0597ZM34.231 24.7462C34.231 30.3157 31.5238 35.1227 27.6471 37.2808C27.1658 37.5489 26.5746 37.5134 26.1287 37.1903L25.2985 36.5862C21.8967 34.1051 19.7839 29.5662 19.7839 24.7397C19.7839 19.1702 22.4911 14.3631 26.3678 12.2051C26.8492 11.937 27.4404 11.9725 27.8862 12.2956L28.7164 12.8997C32.1182 15.3808 34.231 19.9197 34.231 24.7429V24.7462Z" fill="white"/>
<path d="M70.029 17.6584C68.9758 16.9832 67.7417 16.6472 66.3332 16.6472C64.9247 16.6472 63.6874 16.9832 62.6245 17.6584C61.5617 18.3336 60.7411 19.2963 60.1596 20.553C59.5781 21.8097 59.2874 23.3054 59.2874 25.0402C59.2874 26.775 59.5781 28.2482 60.1596 29.5049C60.7411 30.7616 61.5617 31.7275 62.6245 32.4092C63.6874 33.0908 64.9215 33.4332 66.3332 33.4332C67.745 33.4332 68.9758 33.094 70.029 32.4092C71.0821 31.7275 71.9027 30.7583 72.4939 29.5049C73.0819 28.2482 73.3758 26.7621 73.3758 25.0402C73.3758 23.3183 73.0819 21.7903 72.4939 20.5433C71.9059 19.2963 71.0821 18.3336 70.029 17.6616V17.6584ZM69.4152 28.0608C69.1147 28.8975 68.6948 29.5372 68.1585 29.9798C67.6254 30.4223 67.0149 30.642 66.3332 30.642C65.6516 30.642 65.0378 30.4223 64.4983 29.9798C63.9555 29.5372 63.5323 28.8975 63.2319 28.0608C62.9282 27.2241 62.7796 26.2162 62.7796 25.0402C62.7796 23.8643 62.9314 22.8564 63.2319 22.0196C63.5323 21.1829 63.9555 20.5433 64.4983 20.1007C65.041 19.6581 65.6516 19.4384 66.3332 19.4384C67.0149 19.4384 67.6222 19.6581 68.1585 20.1007C68.6948 20.5433 69.1115 21.1765 69.4152 22.0067C69.7188 22.837 69.8674 23.8482 69.8674 25.0402C69.8674 26.2323 69.7156 27.2241 69.4152 28.0608Z" fill="white"/>
<path d="M79.4041 17.4842L75.4208 32.1994C75.2916 32.6808 75.6534 33.1524 76.1477 33.1524H77.9277C78.2702 33.1524 78.5706 32.9198 78.6578 32.5903L79.2684 30.274C79.3556 29.9413 79.6561 29.7119 79.9985 29.7119H84.0593C84.405 29.7119 84.7054 29.9445 84.7894 30.2772L85.3871 32.5871C85.4743 32.9198 85.7748 33.1524 86.1172 33.1524H87.9845C88.482 33.1524 88.8438 32.6808 88.7113 32.1994L84.7054 17.4842C84.615 17.1547 84.3178 16.9285 83.9786 16.9285H80.1342C79.795 16.9285 79.4945 17.1579 79.4073 17.4874L79.4041 17.4842ZM81.126 26.9207C80.6317 26.9207 80.2699 26.4522 80.3959 25.9741L81.0646 23.4349L81.3069 22.4237C81.491 21.6516 82.5894 21.6516 82.7736 22.4237L83.0159 23.4349L83.6717 25.9773C83.7944 26.4555 83.4358 26.9207 82.9415 26.9207H81.1227H81.126Z" fill="white"/>
<path d="M106.916 17.6812V18.9605C106.916 19.3772 107.255 19.7164 107.671 19.7164H108.883C109.3 19.7164 109.639 20.0556 109.639 20.4724V29.6084C109.639 30.0252 109.3 30.3644 108.883 30.3644H107.671C107.255 30.3644 106.916 30.7036 106.916 31.1203V32.3996C106.916 32.8164 107.255 33.1556 107.671 33.1556H114.973C115.389 33.1556 115.728 32.8164 115.728 32.3996V31.1203C115.728 30.7036 115.389 30.3644 114.973 30.3644H113.761C113.344 30.3644 113.005 30.0252 113.005 29.6084V20.4724C113.005 20.0556 113.344 19.7164 113.761 19.7164H114.973C115.389 19.7164 115.728 19.3772 115.728 18.9605V17.6812C115.728 17.2644 115.389 16.9252 114.973 16.9252H107.671C107.255 16.9252 106.916 17.2644 106.916 17.6812Z" fill="white"/>
<path d="M131.006 26.3068C130.689 25.7091 130.269 25.231 129.749 24.8659C129.229 24.5009 128.664 24.2166 128.053 24.0066C127.439 23.7966 126.825 23.6189 126.205 23.4736C125.585 23.3282 125.016 23.1699 124.496 23.0083C123.976 22.8468 123.563 22.6336 123.252 22.3687C122.942 22.107 122.787 21.7581 122.787 21.322C122.787 20.7179 123.017 20.2527 123.472 19.9264C123.928 19.6001 124.506 19.4386 125.204 19.4386C125.685 19.4386 126.137 19.5194 126.541 19.7293C127.074 20.0104 127.439 20.4401 127.643 20.747C127.782 20.9569 128.017 21.0797 128.269 21.0797H130.305C130.831 21.0797 131.209 20.5499 131.012 20.0589C130.873 19.71 130.699 19.3869 130.482 19.0897C129.911 18.2982 129.161 17.6941 128.24 17.2773C127.32 16.8574 126.308 16.6506 125.207 16.6506C124.015 16.6506 122.975 16.8606 122.093 17.2773C121.211 17.6941 120.523 18.2659 120.035 18.9863C119.547 19.7067 119.301 20.5176 119.301 21.4157C119.301 22.3138 119.456 22.9987 119.767 23.564C120.077 24.1294 120.49 24.5849 121.01 24.9241C121.53 25.2665 122.099 25.5443 122.719 25.7608C123.34 25.9772 123.957 26.1646 124.567 26.3197C125.181 26.4747 125.746 26.6427 126.263 26.8204C126.783 26.9981 127.197 27.2275 127.507 27.5053C127.817 27.7831 127.972 28.1547 127.972 28.6199C127.972 29.2563 127.736 29.7505 127.265 30.1091C126.793 30.4645 126.16 30.6422 125.372 30.6422C124.396 30.6422 123.653 30.3547 123.139 29.7829C122.926 29.5438 122.761 29.2563 122.642 28.9235C122.522 28.5908 122.222 28.3776 121.873 28.3776H120.041C119.537 28.3776 119.179 28.8589 119.314 29.3435C119.437 29.7829 119.602 30.1964 119.812 30.5743C120.322 31.4886 121.052 32.1929 121.996 32.6904C122.942 33.1846 124.066 33.4334 125.365 33.4334C126.544 33.4334 127.594 33.2266 128.515 32.8164C129.436 32.4061 130.163 31.8407 130.689 31.1203C131.216 30.3999 131.481 29.5599 131.481 28.5972C131.481 27.6345 131.322 26.9044 131.002 26.3068H131.006Z" fill="white"/>
<path d="M103.197 26.3068C102.881 25.7091 102.461 25.231 101.94 24.8659C101.42 24.5009 100.855 24.2166 100.244 24.0066C99.6306 23.7966 99.0168 23.6189 98.3965 23.4736C97.7762 23.3282 97.2077 23.1699 96.6875 23.0083C96.1674 22.8468 95.7539 22.6336 95.4438 22.3687C95.1336 22.107 94.9786 21.7581 94.9786 21.322C94.9786 20.7179 95.2079 20.2527 95.6634 19.9264C96.119 19.6001 96.6972 19.4386 97.395 19.4386C97.8764 19.4386 98.3287 19.5194 98.7325 19.7293C99.2655 20.0104 99.6306 20.4401 99.8341 20.747C99.973 20.9569 100.209 21.0797 100.461 21.0797H102.496C103.023 21.0797 103.401 20.5499 103.204 20.0589C103.065 19.71 102.89 19.3869 102.674 19.0897C102.102 18.2982 101.352 17.6941 100.432 17.2773C99.5111 16.8574 98.4999 16.6506 97.3983 16.6506C96.2062 16.6506 95.1659 16.8606 94.284 17.2773C93.4021 17.6941 92.714 18.2659 92.2261 18.9863C91.7383 19.7067 91.4928 20.5176 91.4928 21.4157C91.4928 22.3138 91.6479 22.9987 91.958 23.564C92.2681 24.1294 92.6816 24.5849 93.2018 24.9241C93.7219 25.2665 94.2905 25.5443 94.9107 25.7608C95.531 25.9772 96.148 26.1646 96.7586 26.3197C97.3724 26.4747 97.9378 26.6427 98.4547 26.8204C98.9748 26.9981 99.3883 27.2275 99.6984 27.5053C100.009 27.7831 100.164 28.1547 100.164 28.6199C100.164 29.2563 99.9278 29.7505 99.4561 30.1091C98.9845 30.4677 98.3513 30.6422 97.563 30.6422C96.5874 30.6422 95.8444 30.3547 95.3307 29.7829C95.1175 29.5438 94.9527 29.2563 94.8332 28.9235C94.7137 28.5972 94.4132 28.3776 94.0643 28.3776H92.2326C91.7286 28.3776 91.37 28.8589 91.5057 29.3435C91.6285 29.7829 91.7932 30.1964 92.0032 30.5743C92.5137 31.4886 93.2438 32.1929 94.1871 32.6904C95.1336 33.1846 96.2579 33.4334 97.5566 33.4334C98.7357 33.4334 99.7857 33.2266 100.706 32.8164C101.627 32.4061 102.354 31.8407 102.881 31.1203C103.407 30.3999 103.672 29.5599 103.672 28.5972C103.672 27.6345 103.514 26.9044 103.194 26.3068H103.197Z" fill="white"/>
<path d="M138.284 32.7189V17.3544C138.284 17.1153 138.478 16.9215 138.717 16.9215H139.9C140.052 16.9215 140.194 17.0022 140.271 17.1347L147.543 29.5078C147.769 29.8922 148.361 29.721 148.348 29.2751L148.26 26.5486V17.3544C148.26 17.1153 148.454 16.9215 148.693 16.9215H149.365C149.604 16.9215 149.798 17.1153 149.798 17.3544V32.7189C149.798 32.958 149.604 33.1518 149.365 33.1518H148.205C148.054 33.1518 147.911 33.0711 147.834 32.9418L140.539 20.6463C140.313 20.2619 139.722 20.4331 139.738 20.8789L139.822 23.5021V32.7189C139.822 32.958 139.628 33.1518 139.389 33.1518H138.717C138.478 33.1518 138.284 32.958 138.284 32.7189Z" fill="white"/>
<path d="M153.675 32.7189V17.3544C153.675 17.1153 153.869 16.9215 154.108 16.9215H164.636C164.875 16.9215 165.069 17.1153 165.069 17.3544V17.8874C165.069 18.1265 164.875 18.3203 164.636 18.3203H155.642C155.403 18.3203 155.209 18.5141 155.209 18.7532V23.6087C155.209 23.8478 155.403 24.0416 155.642 24.0416H161.8C162.039 24.0416 162.233 24.2355 162.233 24.4745V25.0076C162.233 25.2466 162.039 25.4405 161.8 25.4405H155.642C155.403 25.4405 155.209 25.6343 155.209 25.8734V31.333C155.209 31.5721 155.403 31.7659 155.642 31.7659H164.73C164.969 31.7659 165.163 31.9597 165.163 32.1988V32.7319C165.163 32.9709 164.969 33.1647 164.73 33.1647H154.108C153.869 33.1647 153.675 32.9709 153.675 32.7319V32.7189Z" fill="white"/>
<path d="M173.462 32.719V18.75C173.462 18.511 173.268 18.3172 173.029 18.3172H168.335C168.096 18.3172 167.902 18.1233 167.902 17.8843V17.3512C167.902 17.1122 168.096 16.9183 168.335 16.9183H180.143C180.382 16.9183 180.576 17.1122 180.576 17.3512V17.8843C180.576 18.1233 180.382 18.3172 180.143 18.3172H175.449C175.21 18.3172 175.016 18.511 175.016 18.75V32.719C175.016 32.9581 174.822 33.1519 174.583 33.1519H173.888C173.649 33.1519 173.456 32.9581 173.456 32.719H173.462Z" fill="white"/>
<path d="M184.452 32.7804L182.294 17.4158C182.259 17.1574 182.459 16.9248 182.721 16.9248H183.383C183.6 16.9248 183.78 17.0831 183.809 17.2963L185.363 28.4094L185.518 29.8212C185.551 30.1184 185.98 30.1346 186.032 29.8406L186.294 28.4127L188.571 17.2737C188.613 17.0734 188.788 16.928 188.995 16.928H189.893C190.099 16.928 190.274 17.0734 190.316 17.2737L192.571 28.4127L192.797 29.7049C192.849 30.0053 193.285 29.986 193.314 29.6855L193.433 28.4127L194.961 17.2995C194.99 17.0863 195.175 16.928 195.388 16.928H196.027C196.289 16.928 196.493 17.1606 196.454 17.4191L194.296 32.7836C194.267 32.9968 194.083 33.1551 193.869 33.1551H192.458C192.251 33.1551 192.077 33.0098 192.035 32.8095L189.918 22.2294L189.86 21.8546C189.786 21.3733 189.091 21.3668 189.011 21.8482L188.946 22.2294L186.762 32.8127C186.72 33.013 186.546 33.1584 186.339 33.1584H184.879C184.662 33.1584 184.481 33.0001 184.452 32.7868V32.7804Z" fill="white"/>
<path d="M204.498 33.4297C203.151 33.4297 201.978 33.0808 200.986 32.383C199.995 31.6852 199.226 30.7096 198.686 29.4529C198.143 28.1962 197.872 26.7263 197.872 25.0367C197.872 23.3471 198.143 21.8707 198.686 20.6076C199.229 19.3444 199.995 18.3688 200.986 17.6775C201.978 16.9893 203.148 16.6437 204.498 16.6437C205.848 16.6437 207.018 16.9893 208.01 17.6775C209.001 18.3656 209.767 19.3444 210.31 20.6076C210.852 21.8707 211.124 23.3471 211.124 25.0367C211.124 26.7263 210.852 28.1994 210.31 29.4529C209.767 30.7096 209.001 31.6852 208.01 32.383C207.018 33.0808 205.848 33.4297 204.498 33.4297ZM204.498 32.0373C205.506 32.0373 206.381 31.7466 207.124 31.1651C207.867 30.5836 208.446 29.7662 208.856 28.7131C209.266 27.6599 209.473 26.4355 209.473 25.0399C209.473 23.6443 209.266 22.4005 208.856 21.3538C208.446 20.3071 207.867 19.493 207.124 18.9115C206.381 18.33 205.506 18.0393 204.498 18.0393C203.49 18.0393 202.615 18.33 201.872 18.9115C201.128 19.493 200.55 20.3104 200.14 21.3635C199.73 22.4167 199.523 23.6411 199.523 25.0367C199.523 26.4323 199.73 27.6567 200.14 28.7098C200.55 29.763 201.128 30.5803 201.872 31.1618C202.615 31.7433 203.49 32.0341 204.498 32.0341V32.0373Z" fill="white"/>
<path d="M214.354 32.719V17.3544C214.354 17.1154 214.548 16.9216 214.787 16.9216H215.459C215.698 16.9216 215.892 17.1154 215.892 17.3544V32.719C215.892 32.9581 215.698 33.1519 215.459 33.1519H214.787C214.548 33.1519 214.354 32.9581 214.354 32.719ZM215.45 25.4438V24.9333C215.45 24.6943 215.643 24.5005 215.883 24.5005H219.869C220.706 24.5005 221.442 24.368 222.079 24.1063C222.715 23.8414 223.219 23.4667 223.591 22.9789C223.962 22.491 224.15 21.9225 224.15 21.2699C224.15 20.6173 223.988 20.123 223.662 19.6901C223.335 19.2573 222.903 18.918 222.36 18.679C221.817 18.4399 221.219 18.3172 220.57 18.3172H215.886C215.647 18.3172 215.453 18.1233 215.453 17.8843V17.3512C215.453 17.1122 215.647 16.9183 215.886 16.9183H220.57C221.562 16.9183 222.454 17.0895 223.245 17.4288C224.036 17.7712 224.66 18.2655 225.115 18.918C225.574 19.5706 225.8 20.3524 225.8 21.2667C225.8 21.8708 225.665 22.449 225.393 22.9982C225.122 23.5474 224.731 24.0417 224.221 24.4746C223.71 24.9075 223.087 25.2499 222.35 25.4987C221.614 25.7474 220.78 25.8702 219.85 25.8702H215.886C215.647 25.8702 215.453 25.6764 215.453 25.4373L215.45 25.4438ZM224.35 33.1519C224.15 33.1519 223.978 33.013 223.93 32.8159C223.775 32.1763 223.555 31.5496 223.271 30.9422C222.938 30.2283 222.499 29.5434 221.956 28.8843C221.413 28.2253 220.751 27.605 219.969 27.0235C219.443 26.6326 218.858 26.2547 218.212 25.8896C217.869 25.6958 217.934 25.1853 218.318 25.0916L218.784 24.9786C218.884 24.956 218.99 24.9656 219.081 25.0109C220.134 25.5342 221.035 26.0964 221.785 26.6972C222.567 27.324 223.219 27.983 223.736 28.6743C224.256 29.3657 224.657 30.0796 224.944 30.8259C225.17 31.4074 225.338 32.0115 225.455 32.6318C225.503 32.8999 225.306 33.1519 225.031 33.1519H224.347H224.35Z" fill="white"/>
<path d="M229.467 32.7189V17.3544C229.467 17.1153 229.661 16.9215 229.9 16.9215H230.572C230.811 16.9215 231.005 17.1153 231.005 17.3544V21.6413L230.976 23.7089C230.969 24.0998 231.447 24.2969 231.719 24.0126L233.263 22.407L238.6 17.0475C238.681 16.9667 238.79 16.9215 238.907 16.9215H239.766C240.151 16.9215 240.341 17.3835 240.073 17.6548L231.134 26.723C231.053 26.8038 231.011 26.9136 231.011 27.0267V32.7189C231.011 32.958 230.817 33.1518 230.578 33.1518H229.906C229.667 33.1518 229.474 32.958 229.474 32.7189H229.467ZM239.359 32.9774L232.891 24.2064C232.749 24.0126 232.791 23.738 232.988 23.599L233.563 23.192C233.754 23.0563 234.019 23.0983 234.161 23.2889L240.936 32.4669C241.146 32.7512 240.942 33.1551 240.59 33.1551H239.708C239.572 33.1551 239.443 33.0905 239.362 32.9806L239.359 32.9774Z" fill="white"/>
</g>
<defs>
<clipPath id="clip0_13015_420280">
<rect width="241" height="50.0737" fill="white"/>
</clipPath>
</defs>
</svg>
