<svg width="253" height="91" viewBox="0 0 253 91" fill="none" xmlns="http://www.w3.org/2000/svg">
  <path d="M10.0881 39.213C11.3697 39.0924 12.5199 38.6064 13.4883 37.8972C13.5387 37.9314 13.5675 37.9836 13.6215 38.016L22.7943 43.3728C22.4919 44.8164 22.3263 46.3086 22.3263 47.8422C22.3263 52.9794 24.1839 57.6432 27.1647 61.3764L22.1427 67.7682C22.1049 67.815 22.0995 67.8744 22.0653 67.923C21.0555 67.5936 19.9989 67.3686 18.8811 67.3686C13.1823 67.3686 8.54372 72.0054 8.54372 77.706C8.54372 83.4066 13.1823 88.0434 18.8811 88.0434C24.5799 88.0434 29.2185 83.4066 29.2185 77.706C29.2185 75.6216 28.5867 73.6848 27.5211 72.0594C27.5337 72.045 27.5517 72.0396 27.5643 72.0252L32.2335 66.0816C35.6661 68.3316 39.7503 69.6636 44.1513 69.6636C48.5523 69.6636 52.7319 68.3118 56.1861 66.0186L63.1917 71.865C63.1161 72.549 63.1089 73.251 63.2493 73.962C63.9891 77.6952 67.6143 80.1234 71.3493 79.3836C75.0825 78.6438 77.5107 75.0186 76.7709 71.2836C76.0311 67.5504 72.4059 65.1222 68.6709 65.862C68.1813 65.9592 67.7187 66.1104 67.2777 66.2994L61.2333 61.254C64.1565 57.5406 65.9745 52.92 65.9745 47.8368C65.9745 46.9602 65.8161 46.125 65.7153 45.2736L73.0719 40.4514C74.2977 41.2362 75.6927 41.7942 77.2281 42.0012C77.6997 42.0642 78.1659 42.0948 78.6321 42.0948C80.8839 42.0948 83.0601 41.364 84.8781 39.9762C87.0759 38.3004 88.4853 35.8704 88.8543 33.1362C89.2269 30.402 88.5087 27.684 86.8347 25.488C85.1607 23.292 82.7289 21.8808 79.9965 21.51C77.2191 21.1356 74.5353 21.8574 72.3465 23.5314C70.1487 25.2072 68.7339 27.6372 68.3667 30.3732C68.1507 31.9806 68.3541 33.5394 68.8347 34.983L63.7119 38.3418C60.1677 31.0716 52.7697 26.0082 44.1513 26.0082C44.0973 26.0082 44.0487 26.0244 43.9947 26.0244L43.5393 23.751C44.9829 22.9248 46.2501 21.8088 47.1987 20.3832C48.8097 17.964 49.3785 15.066 48.8097 12.2166C48.2391 9.36541 46.5975 6.90841 44.1801 5.29561C41.7573 3.68101 38.8539 3.11581 36.0045 3.68101C33.1551 4.25341 30.6963 5.90041 29.0853 8.31781C27.4707 10.7388 26.9001 13.6386 27.4707 16.4898C28.0413 19.3392 29.6919 21.798 32.1093 23.409C33.5277 24.3522 35.1279 24.8256 36.7677 25.0362L37.2105 27.2466C32.1867 28.9476 28.0143 32.3874 25.3773 36.8964L17.0955 32.0598C16.8435 31.9104 16.5699 31.8636 16.3017 31.7862C16.2999 31.7556 16.3053 31.7268 16.3017 31.698C15.9435 27.909 12.5811 25.128 8.79212 25.4862C5.00312 25.8444 2.22212 29.2068 2.58032 32.9958C2.93852 36.7848 6.30092 39.5658 10.0899 39.2076L10.0881 39.213ZM76.5153 29.0214C77.1255 28.5588 77.8527 28.314 78.6015 28.314C78.7545 28.314 78.9111 28.3248 79.0677 28.3446C79.9785 28.4688 80.7903 28.9386 81.3465 29.6712C81.9027 30.402 82.1457 31.3092 82.0197 32.22C81.8991 33.1362 81.4275 33.9444 80.6967 34.5024C79.9605 35.0586 79.0551 35.2836 78.1479 35.1774C76.2633 34.9236 74.9403 33.183 75.1905 31.3002C75.3111 30.3876 75.7827 29.5776 76.5135 29.0214H76.5153ZM34.2225 15.1434C34.0119 14.0976 34.2225 13.0338 34.8147 12.1482C35.4069 11.259 36.3087 10.656 37.3545 10.4454C37.6191 10.3914 37.8837 10.3662 38.1483 10.3662C38.9241 10.3662 39.6873 10.5948 40.3515 11.0376C41.2353 11.628 41.8365 12.528 42.0471 13.5702V13.5738C42.2577 14.6196 42.0471 15.6852 41.4549 16.5708C40.8663 17.4564 39.9645 18.0612 38.9205 18.2682C37.8837 18.4842 36.8109 18.27 35.9235 17.676C35.0343 17.0856 34.4331 16.1856 34.2225 15.1416V15.1434ZM18.8775 81.1512C16.9803 81.1512 15.4323 79.605 15.4323 77.706C15.4323 75.807 16.9803 74.2608 18.8775 74.2608C20.7747 74.2608 22.3227 75.807 22.3227 77.706C22.3227 79.605 20.7747 81.1512 18.8775 81.1512ZM38.5641 34.0146L39.5631 38.9934C39.8907 40.6314 41.3307 41.7618 42.9363 41.7618C43.1613 41.7618 43.3899 41.7402 43.6185 41.6952C45.4851 41.3208 46.6911 39.5064 46.3203 37.6398L45.3969 33.0372C53.0379 33.6834 59.0805 40.0374 59.0805 47.844C59.0805 56.0772 52.3809 62.7768 44.1477 62.7768C41.3541 62.7768 38.7657 61.9578 36.5265 60.615L37.6677 59.1624C38.8431 57.6666 38.5839 55.4994 37.0845 54.324C35.5941 53.1486 33.4233 53.4078 32.2479 54.9054L31.5531 55.791C30.0933 53.4852 29.2149 50.7726 29.2149 47.8458C29.2149 41.589 33.0921 36.2376 38.5623 34.02L38.5641 34.0146Z" fill="#1B0F33"/>
  <path fill-rule="evenodd" clip-rule="evenodd" d="M44.0361 62.4998C52.1381 62.4998 58.7061 55.9318 58.7061 47.8298C58.7061 39.7278 52.1381 33.1598 44.0361 33.1598C35.9341 33.1598 29.3661 39.7278 29.3661 47.8298C29.3661 55.9318 35.9341 62.4998 44.0361 62.4998ZM44.0361 69.8798C56.214 69.8798 66.0861 60.0077 66.0861 47.8298C66.0861 35.6519 56.214 25.7798 44.0361 25.7798C31.8582 25.7798 21.9861 35.6519 21.9861 47.8298C21.9861 60.0077 31.8582 69.8798 44.0361 69.8798Z" fill="#0500E1"/>
  <g clip-path="url(#clip0_13998_31414)">
    <path d="M138.746 33.7598L150.746 45.7598L138.746 57.7598V48.7598H126.746V42.7598H138.746V33.7598ZM117.746 42.7598C116.096 42.7598 114.746 44.1098 114.746 45.7598C114.746 47.4098 116.096 48.7598 117.746 48.7598C119.396 48.7598 120.746 47.4098 120.746 45.7598C120.746 44.1098 119.396 42.7598 117.746 42.7598ZM105.746 42.7598C104.096 42.7598 102.746 44.1098 102.746 45.7598C102.746 47.4098 104.096 48.7598 105.746 48.7598C107.396 48.7598 108.746 47.4098 108.746 45.7598C108.746 44.1098 107.396 42.7598 105.746 42.7598Z" fill="#1B0F33"/>
  </g>
  <path d="M172.088 39.213C173.37 39.0924 174.52 38.6064 175.488 37.8972C175.539 37.9314 175.568 37.9836 175.622 38.016L184.794 43.3728C184.492 44.8164 184.326 46.3086 184.326 47.8422C184.326 52.9794 186.184 57.6432 189.165 61.3764L184.143 67.7682C184.105 67.815 184.1 67.8744 184.065 67.923C183.056 67.5936 181.999 67.3686 180.881 67.3686C175.182 67.3686 170.544 72.0054 170.544 77.706C170.544 83.4066 175.182 88.0434 180.881 88.0434C186.58 88.0434 191.219 83.4066 191.219 77.706C191.219 75.6216 190.587 73.6848 189.521 72.0594C189.534 72.045 189.552 72.0396 189.564 72.0252L194.234 66.0816C197.666 68.3316 201.75 69.6636 206.151 69.6636C210.552 69.6636 214.732 68.3118 218.186 66.0186L225.192 71.865C225.116 72.549 225.109 73.251 225.249 73.962C225.989 77.6952 229.614 80.1234 233.349 79.3836C237.083 78.6438 239.511 75.0186 238.771 71.2836C238.031 67.5504 234.406 65.1222 230.671 65.862C230.181 65.9592 229.719 66.1104 229.278 66.2994L223.233 61.254C226.157 57.5406 227.975 52.92 227.975 47.8368C227.975 46.9602 227.816 46.125 227.715 45.2736L235.072 40.4514C236.298 41.2362 237.693 41.7942 239.228 42.0012C239.7 42.0642 240.166 42.0948 240.632 42.0948C242.884 42.0948 245.06 41.364 246.878 39.9762C249.076 38.3004 250.485 35.8704 250.854 33.1362C251.227 30.402 250.509 27.684 248.835 25.488C247.161 23.292 244.729 21.8808 241.997 21.51C239.219 21.1356 236.535 21.8574 234.347 23.5314C232.149 25.2072 230.734 27.6372 230.367 30.3732C230.151 31.9806 230.354 33.5394 230.835 34.983L225.712 38.3418C222.168 31.0716 214.77 26.0082 206.151 26.0082C206.097 26.0082 206.049 26.0244 205.995 26.0244L205.539 23.751C206.983 22.9248 208.25 21.8088 209.199 20.3832C210.81 17.964 211.379 15.066 210.81 12.2166C210.239 9.36541 208.598 6.90841 206.18 5.29561C203.757 3.68101 200.854 3.11581 198.005 3.68101C195.155 4.25341 192.696 5.90041 191.085 8.31781C189.471 10.7388 188.9 13.6386 189.471 16.4898C190.041 19.3392 191.692 21.798 194.109 23.409C195.528 24.3522 197.128 24.8256 198.768 25.0362L199.211 27.2466C194.187 28.9476 190.014 32.3874 187.377 36.8964L179.096 32.0598C178.844 31.9104 178.57 31.8636 178.302 31.7862C178.3 31.7556 178.305 31.7268 178.302 31.698C177.944 27.909 174.581 25.128 170.792 25.4862C167.003 25.8444 164.222 29.2068 164.58 32.9958C164.939 36.7848 168.301 39.5658 172.09 39.2076L172.088 39.213ZM238.515 29.0214C239.126 28.5588 239.853 28.314 240.602 28.314C240.755 28.314 240.911 28.3248 241.068 28.3446C241.979 28.4688 242.79 28.9386 243.347 29.6712C243.903 30.402 244.146 31.3092 244.02 32.22C243.899 33.1362 243.428 33.9444 242.697 34.5024C241.961 35.0586 241.055 35.2836 240.148 35.1774C238.263 34.9236 236.94 33.183 237.191 31.3002C237.311 30.3876 237.783 29.5776 238.514 29.0214H238.515ZM196.223 15.1434C196.012 14.0976 196.223 13.0338 196.815 12.1482C197.407 11.259 198.309 10.656 199.355 10.4454C199.619 10.3914 199.884 10.3662 200.148 10.3662C200.924 10.3662 201.687 10.5948 202.352 11.0376C203.235 11.628 203.837 12.528 204.047 13.5702V13.5738C204.258 14.6196 204.047 15.6852 203.455 16.5708C202.866 17.4564 201.965 18.0612 200.921 18.2682C199.884 18.4842 198.811 18.27 197.924 17.676C197.034 17.0856 196.433 16.1856 196.223 15.1416V15.1434ZM180.878 81.1512C178.98 81.1512 177.432 79.605 177.432 77.706C177.432 75.807 178.98 74.2608 180.878 74.2608C182.775 74.2608 184.323 75.807 184.323 77.706C184.323 79.605 182.775 81.1512 180.878 81.1512ZM200.564 34.0146L201.563 38.9934C201.891 40.6314 203.331 41.7618 204.936 41.7618C205.161 41.7618 205.39 41.7402 205.619 41.6952C207.485 41.3208 208.691 39.5064 208.32 37.6398L207.397 33.0372C215.038 33.6834 221.081 40.0374 221.081 47.844C221.081 56.0772 214.381 62.7768 206.148 62.7768C203.354 62.7768 200.766 61.9578 198.527 60.615L199.668 59.1624C200.843 57.6666 200.584 55.4994 199.085 54.324C197.594 53.1486 195.423 53.4078 194.248 54.9054L193.553 55.791C192.093 53.4852 191.215 50.7726 191.215 47.8458C191.215 41.589 195.092 36.2376 200.562 34.02L200.564 34.0146Z" fill="#1B0F33"/>
  <path fill-rule="evenodd" clip-rule="evenodd" d="M180.881 81.0399C182.72 81.0399 184.211 79.549 184.211 77.7099C184.211 75.8708 182.72 74.3799 180.881 74.3799C179.042 74.3799 177.551 75.8708 177.551 77.7099C177.551 79.549 179.042 81.0399 180.881 81.0399ZM180.881 88.0599C186.597 88.0599 191.231 83.426 191.231 77.7099C191.231 71.9937 186.597 67.3599 180.881 67.3599C175.165 67.3599 170.531 71.9937 170.531 77.7099C170.531 83.426 175.165 88.0599 180.881 88.0599Z" fill="#0500E1"/>
  <defs>
    <clipPath id="clip0_13998_31414">
      <rect width="72" height="72" fill="white" transform="translate(90.7461 9.75977)"/>
    </clipPath>
  </defs>
</svg>
