<svg xmlns="http://www.w3.org/2000/svg" width="456" height="120" fill="none">
  <title>ROSE Move logo</title>
  <path fill="white" d="M372.78 42.55a15.25 15.25 0 0 0-8.91-2.63c-3.43 0-6.4.88-8.92 2.63a16.88 16.88 0 0 0-5.84 7.44 28.3 28.3 0 0 0-2.07 11.24c0 4.3.69 8.03 2.07 11.21a17.16 17.16 0 0 0 5.84 7.44 15.09 15.09 0 0 0 8.92 2.65c3.42 0 6.4-.88 8.91-2.65a17.18 17.18 0 0 0 5.85-7.44c1.38-3.18 2.06-6.92 2.06-11.2 0-4.3-.69-8.05-2.06-11.26a16.9 16.9 0 0 0-5.85-7.43Zm2.15 28a14.26 14.26 0 0 1-4.4 6.24 10.5 10.5 0 0 1-6.67 2.21c-2.56 0-4.78-.73-6.67-2.21a14.26 14.26 0 0 1-4.4-6.23 25.6 25.6 0 0 1-1.56-9.33c0-3.54.53-6.65 1.56-9.32a14.18 14.18 0 0 1 4.4-6.23 10.5 10.5 0 0 1 6.67-2.21c2.55 0 4.78.74 6.67 2.21a14.24 14.24 0 0 1 4.4 6.2 25.58 25.58 0 0 1 1.57 9.36c0 3.58-.53 6.65-1.57 9.33v-.01ZM431.86 62.24h14.76a1.78 1.78 0 0 0 0-3.55h-14.76a1.3 1.3 0 0 1-1.3-1.3V45.48c0-.71.59-1.3 1.3-1.3h21.96a1.78 1.78 0 0 0 0-3.54h-24.2a2.95 2.95 0 0 0-2.95 2.94v35.31a2.95 2.95 0 0 0 2.94 2.95h24.45a1.78 1.78 0 0 0 0-3.55h-22.2a1.3 1.3 0 0 1-1.3-1.3V63.52c0-.71.59-1.3 1.3-1.3v.02ZM332.27 40.77a3.1 3.1 0 0 0-3.01 2.34l-6.73 26.61-.74 3.41c-.15.65-1.06.64-1.2 0l-.7-3.4-6.63-26.6a3.1 3.1 0 0 0-3-2.35h-.1a3.1 3.1 0 0 0-3.1 2.86l-2.83 36a1.9 1.9 0 1 0 3.77.29l1.98-27.43.14-2.26c.05-.81 1.22-.9 1.39-.1l.47 2.36 6.69 27.3a2.47 2.47 0 0 0 4.8.01l6.84-27.31.56-2.46c.18-.8 1.34-.69 1.38.12l.11 2.34 2.04 27.43c.07.98.9 1.75 1.88 1.75h.06c1.11 0 1.98-.95 1.89-2.05l-2.89-36a3.1 3.1 0 0 0-3.09-2.85l.02-.01ZM405.16 70.43l-1.23 3.88c-.37 1.15-2 1.15-2.37 0l-1.25-4-10.17-28.41c-.27-.76-1-1.27-1.81-1.27h-.12a1.92 1.92 0 0 0-1.82 2.56l12.74 36.13a3.74 3.74 0 0 0 7.08 0l12.74-36.13a1.92 1.92 0 1 0-3.63-1.28l-10.17 28.53ZM209.03 41.63a17.13 17.13 0 0 0-9.44-2.58c-3.6 0-6.75.86-9.47 2.58a16.9 16.9 0 0 0-6.29 7.39c-1.48 3.2-2.22 7.02-2.22 11.45s.74 8.2 2.22 11.4a17.05 17.05 0 0 0 6.3 7.41 17.1 17.1 0 0 0 9.46 2.61c3.6 0 6.75-.87 9.44-2.6a17.4 17.4 0 0 0 6.3-7.42c1.5-3.2 2.25-7 2.25-11.4 0-4.39-.75-8.3-2.26-11.48a17.14 17.14 0 0 0-6.29-7.36Zm-1.57 26.56a11.07 11.07 0 0 1-3.2 4.9 7.1 7.1 0 0 1-4.67 1.69c-1.74 0-3.3-.56-4.69-1.7a10.92 10.92 0 0 1-3.23-4.9 22.8 22.8 0 0 1-1.16-7.7c0-3.01.39-5.59 1.16-7.72a10.9 10.9 0 0 1 3.23-4.9 7.22 7.22 0 0 1 4.7-1.7c1.74 0 3.29.57 4.65 1.7a11.05 11.05 0 0 1 3.2 4.87c.78 2.11 1.16 4.7 1.16 7.74 0 3.05-.39 5.58-1.15 7.72ZM249.01 60.03a17.05 17.05 0 0 0-4.33-2.2c-1.56-.53-3.13-.99-4.72-1.36a63.95 63.95 0 0 1-4.36-1.18 9.1 9.1 0 0 1-3.17-1.64 3.33 3.33 0 0 1-1.19-2.67 4.1 4.1 0 0 1 1.75-3.56 7.43 7.43 0 0 1 4.42-1.24c1.23 0 2.37.24 3.42.74a6.78 6.78 0 0 1 2.84 2.5c.35.58.96.95 1.64.95h5.2a1.89 1.89 0 0 0 1.77-2.54v-.02c-.36-.9-.83-1.75-1.39-2.53a14.22 14.22 0 0 0-5.72-4.62 18.5 18.5 0 0 0-7.75-1.6c-3.05 0-5.7.53-7.95 1.6-2.26 1.06-4.01 2.52-5.26 4.36a10.82 10.82 0 0 0-1.87 6.2c0 2.3.4 4.05 1.19 5.49a9.52 9.52 0 0 0 3.17 3.47c1.33.87 2.78 1.58 4.36 2.13 1.59.56 3.16 1.04 4.72 1.43 1.57.4 3 .82 4.33 1.27a9.1 9.1 0 0 1 3.18 1.76c.8.7 1.18 1.66 1.18 2.84 0 1.63-.6 2.89-1.8 3.8-1.22.91-2.82 1.36-4.85 1.36-2.49 0-4.39-.73-5.7-2.2a6.98 6.98 0 0 1-1.34-2.34 1.88 1.88 0 0 0-1.79-1.26h-4.83a1.9 1.9 0 0 0-1.82 2.42c.32 1.15.75 2.22 1.3 3.2a13.33 13.33 0 0 0 5.58 5.4 18.31 18.31 0 0 0 8.6 1.9c3.02 0 5.7-.51 8.05-1.56 2.35-1.05 4.2-2.5 5.55-4.34a10.63 10.63 0 0 0 2.02-6.44c0-2.45-.41-4.32-1.22-5.84a10.37 10.37 0 0 0-3.2-3.68ZM269.84 72.08v-6.76c0-1.1.9-2 2-2h10.37a2 2 0 0 0 2-1.99V58.2a2 2 0 0 0-2-2h-10.38a2 2 0 0 1-1.99-1.98v-5.34c0-1.1.9-2 2-2h17.73a2 2 0 0 0 2-1.98v-3.14a2 2 0 0 0-2-2h-26.4a2 2 0 0 0-2 2V79.2c0 1.1.9 2 2 2h26.64a2 2 0 0 0 1.99-2v-3.14a2 2 0 0 0-2-1.99h-17.97a2 2 0 0 1-1.99-1.99ZM169.75 65.66c-.57-.92-.3-2.13.6-2.7.86-.56 1.55-1.2 2.38-1.92a13.36 13.36 0 0 0 3.27-4.16c.75-1.52 1.12-3.1 1.12-4.72 0-2.6-.64-4.83-1.93-6.67a12.3 12.3 0 0 0-5.3-4.24c-2.26-1-4.83-1.49-7.72-1.49h-14.82c-1.1 0-1.98.9-1.98 1.99V79.2c0 1.1.89 1.98 1.98 1.98H152c1.1 0 1.98-.88 1.98-1.98V67.07c0-1.09.88-1.97 1.97-1.97h3.03c.66 0 1.28.33 1.64.88 1.86 2.8 7.1 11.38 8.84 14.26.36.59 1 .95 1.7.95h4.7c1.56 0 2.51-1.71 1.69-3.03l-7.8-12.5Zm-7.58-18.77a7.1 7.1 0 0 1 3.08.65 5.33 5.33 0 0 1 2.17 1.84c.53.8.8 1.72.8 2.79 0 1.15-.3 2.16-.89 3.03a6 6 0 0 1-2.43 2.04 8.3 8.3 0 0 1-3.62.74h-5.32c-1.1 0-1.99-.88-1.99-1.98v-7.14c0-1.1.89-1.98 1.99-1.98h6.2ZM85.35 5.6a60.88 60.88 0 0 0-4.77-2A59.34 59.34 0 0 0 60.11 0c-33.08 0-60 26.92-60 60a60.1 60.1 0 0 0 60 60 60.04 60.04 0 0 0 60-60 59.8 59.8 0 0 0-17.18-41.97A60.26 60.26 0 0 0 85.34 5.6Zm-34.8 103.14c-12.4 0-24.27-6.07-32.53-16.64a53.45 53.45 0 0 1 16.7-78.98c.43-.25.87.33.5.67a59.05 59.05 0 0 0-4.3 4.53c-9.52 11.12-15 26.25-15.05 41.52 0 19.81 13.26 41.2 34.68 41.2 19.12 0 34.66-18.48 34.66-41.2 0-10.68-3.58-20.93-9.69-28.54a.35.35 0 0 1 .37-.55c10.33 3.06 18.05 14.94 18.05 29.09 0 12.49-4.53 24.93-12.43 34.12-8.2 9.53-19.2 14.78-30.96 14.79Zm-8.32-48.91c0-14.16 6.87-26.37 16.73-31.85a3.58 3.58 0 0 1 3.85.23l2.1 1.53c8.65 6.31 14.02 17.84 14.02 30.1 0 14.15-6.87 26.37-16.73 31.85-1.22.69-2.72.6-3.85-.22l-2.11-1.54c-8.65-6.3-14.02-17.84-14.02-30.1Zm71.75 0a53.46 53.46 0 0 1-27.54 46.71c-.43.25-.86-.33-.5-.67a58.07 58.07 0 0 0 4.31-4.53c9.5-11.12 14.99-26.25 15.04-41.52 0-19.82-13.26-41.2-34.68-41.2-19.1 0-34.66 18.48-34.66 41.2 0 10.68 3.58 20.93 9.7 28.54a.35.35 0 0 1-.38.55c-10.33-3.05-18.06-14.93-18.06-29.07 0-12.5 4.54-24.93 12.44-34.12 8.2-9.54 19.2-14.78 30.97-14.78 12.4 0 24.25 6.07 32.54 16.66a52.77 52.77 0 0 1 10.81 32.22h.01Z"/>
</svg>
