<svg width="320" height="200" viewBox="0 0 320 200" fill="none" xmlns="http://www.w3.org/2000/svg">
  <rect width="100%" height="100%" fill="#F4F2F7"/>
  <path d="M96.5715 82.1014C93.5896 79.2024 90.066 76.8235 86.1612 75.091C86.0006 75.0145 85.8401 74.9418 85.6756 74.8768C84.909 74.5517 84.1345 74.2381 83.3399 73.9627C81.1166 73.194 78.7889 72.6318 76.385 72.2952C74.7034 72.0619 72.9858 71.9357 71.24 71.9357C51.6675 71.9357 35.7471 87.1077 35.7471 105.76C35.7471 120.289 45.4109 132.708 58.9355 137.485C60.5247 138.047 62.1701 138.502 63.8597 138.842C66.2436 139.324 68.7077 139.584 71.24 139.584C84.7204 139.584 96.4711 132.383 102.475 121.808C105.188 117.031 106.733 111.566 106.733 105.76C106.733 96.5581 102.852 88.2053 96.5715 82.1014ZM46.334 123.858C42.1401 118.588 39.9248 112.296 39.9248 105.668C39.9248 94.3514 46.5065 84.4764 56.2145 79.3324C56.4714 79.1947 56.7242 79.5198 56.5115 79.711C55.6246 80.5065 54.7738 81.3594 53.9591 82.262C48.3325 88.5342 45.0899 97.063 45.0618 105.668C45.0618 116.84 52.9036 128.898 65.5733 128.898C76.8786 128.898 86.0769 118.477 86.0769 105.668C86.0769 99.6484 83.9579 93.8695 80.346 89.5822C80.2176 89.4292 80.3701 89.215 80.5667 89.2724C86.6789 90.9934 91.2499 97.694 91.2499 105.668C91.2499 112.713 88.5691 119.723 83.8937 124.906C79.0457 130.279 72.5403 133.239 65.5774 133.239C58.2412 133.239 51.2221 129.813 46.334 123.854V123.858ZM96.7079 87.4978C100.898 92.7565 103.109 99.0364 103.105 105.661C103.105 116.977 96.5233 126.856 86.8153 131.996C86.5585 132.134 86.3057 131.809 86.5184 131.618C87.4053 130.822 88.2561 129.969 89.0708 129.067C94.6973 122.798 97.94 114.27 97.9681 105.661C97.9681 94.4891 90.1262 82.4303 77.4565 82.4303C66.1512 82.4303 56.9529 92.8522 56.9529 105.661C56.9529 111.68 59.0719 117.459 62.6878 121.747C62.8163 121.9 62.6638 122.114 62.4671 122.056C56.355 120.335 51.7839 113.639 51.7839 105.664C51.7839 98.6234 54.4647 91.613 59.1401 86.4308C63.9881 81.0573 70.4936 78.0971 77.4645 78.0971C84.7927 78.0971 91.8118 81.52 96.716 87.494H96.7079V87.4978ZM82.3687 105.668C82.3687 113.646 78.3033 120.534 72.4721 123.624C71.7497 124.007 70.8588 123.961 70.1926 123.494L68.9445 122.626C63.8316 119.069 60.6571 112.568 60.6571 105.661C60.6571 97.6826 64.7225 90.7946 70.5538 87.7043C71.2761 87.3219 72.1671 87.3678 72.8333 87.8344L74.0814 88.7025C79.1942 92.2594 82.3727 98.7573 82.3727 105.668H82.3687Z" fill="#1B0F33"/>
  <path d="M154.733 93.76L166.733 105.76L154.733 117.76V108.76H142.733V102.76H154.733V93.76ZM133.733 102.76C132.083 102.76 130.733 104.11 130.733 105.76C130.733 107.41 132.083 108.76 133.733 108.76C135.383 108.76 136.733 107.41 136.733 105.76C136.733 104.11 135.383 102.76 133.733 102.76ZM121.733 102.76C120.083 102.76 118.733 104.11 118.733 105.76C118.733 107.41 120.083 108.76 121.733 108.76C123.383 108.76 124.733 107.41 124.733 105.76C124.733 104.11 123.383 102.76 121.733 102.76Z" fill="#1B0F33"/>
  <path d="M193.986 90.5067H209.239V75.2534H193.986V90.5067ZM216.866 136.267H232.119V121.013H216.866V136.267ZM193.986 136.267H209.239V121.013H193.986V136.267ZM193.986 113.387H209.239V98.1334H193.986V113.387ZM216.866 113.387H232.119V98.1334H216.866V113.387ZM239.746 75.2534V90.5067H254.999V75.2534H239.746ZM216.866 90.5067H232.119V75.2534H216.866V90.5067ZM239.746 113.387H254.999V98.1334H239.746V113.387ZM239.746 136.267H254.999V121.013H239.746V136.267Z" fill="#1B0F33"/>
</svg>
