<?xml version="1.0" encoding="UTF-8"?><svg id="Layer_1" xmlns="http://www.w3.org/2000/svg" viewBox="0 0 500 500"><defs><style>.cls-1{fill:#09090b;}.cls-2{fill:#fff;}</style></defs><rect class="cls-1" width="500" height="500"/><path class="cls-2" d="M292.05,109.32c-.45-.23-.9-.44-1.37-.64-2.17-.96-4.35-1.88-6.59-2.7-6.26-2.28-12.82-3.94-19.59-4.93-4.74-.69-9.57-1.06-14.49-1.06-55.14,0-100,44.86-100,100,0,42.96,27.23,79.67,65.34,93.8,4.48,1.66,9.12,3,13.87,4.02,6.71,1.43,13.66,2.19,20.79,2.19,37.98,0,71.09-21.29,88.01-52.56,7.64-14.12,11.99-30.28,11.99-47.44,0-27.21-10.93-51.9-28.62-69.95-8.4-8.56-18.33-15.61-29.33-20.73ZM234.04,281.24c-20.67,0-40.44-10.13-54.21-27.75-11.82-15.58-18.06-34.18-18.06-53.77,0-33.45,18.54-62.66,45.9-77.87.72-.41,1.44.56.84,1.13-2.5,2.36-4.9,4.87-7.18,7.54-15.85,18.54-24.98,43.76-25.07,69.2,0,33.03,22.1,68.68,57.8,68.68,31.86,0,57.77-30.82,57.77-68.68,0-17.8-5.97-34.88-16.15-47.56-.36-.45.07-1.08.61-.92,17.22,5.09,30.09,24.9,30.09,48.48,0,20.83-7.56,41.55-20.73,56.88-13.66,15.88-31.99,24.63-51.61,24.64ZM220.18,199.71c0-23.59,11.46-43.95,27.89-53.08,2.03-1.14,4.55-.99,6.42.38l3.51,2.56c14.4,10.51,23.36,29.73,23.36,50.16,0,23.59-11.46,43.95-27.89,53.09-2.03,1.14-4.54,1-6.42-.38l-3.52-2.56c-14.4-10.51-23.36-29.74-23.36-50.16h0ZM339.77,199.71c0,33.45-18.55,62.66-45.9,77.87-.72.41-1.44-.56-.84-1.13,2.5-2.36,4.9-4.87,7.18-7.55,15.85-18.54,24.98-43.75,25.07-69.2,0-33.03-22.1-68.68-57.8-68.68-31.85,0-57.77,30.82-57.77,68.68,0,17.8,5.96,34.88,16.15,47.57.36.45-.07,1.08-.61.92-17.22-5.09-30.1-24.89-30.1-48.46,0-20.82,7.56-41.54,20.73-56.87,13.66-15.89,31.99-24.63,51.62-24.63,20.65,0,40.42,10.12,54.24,27.78,11.81,15.55,18.04,34.12,18.02,53.7h0Z"/><path class="cls-2" d="M161.12,387.53c-3.86,0-7.2-1-10.04-2.99-2.83-1.99-5.03-4.78-6.58-8.37s-2.33-7.8-2.33-12.63.78-9.05,2.33-12.67c1.55-3.61,3.75-6.41,6.58-8.37,2.83-1.98,6.19-2.95,10.04-2.95s7.2.99,10.04,2.95c2.83,1.98,5.03,4.76,6.58,8.37s2.33,7.83,2.33,12.67-.78,9.04-2.33,12.63-3.75,6.38-6.58,8.37c-2.83,1.99-6.19,2.99-10.04,2.99ZM161.12,383.54c2.88,0,5.38-.83,7.52-2.49s3.78-4,4.95-7.02c1.17-3.01,1.76-6.52,1.76-10.51s-.59-7.54-1.76-10.53-2.83-5.32-4.95-6.98c-2.12-1.66-4.63-2.49-7.52-2.49s-5.38.83-7.52,2.49c-2.12,1.66-3.78,4-4.95,7.02-1.17,3.01-1.76,6.52-1.76,10.51s.59,7.49,1.76,10.51c1.17,3.01,2.83,5.35,4.95,7.02,2.12,1.66,4.63,2.49,7.52,2.49h0Z"/><path class="cls-2" d="M94.31,364.4c-.19-.14-.4-.27-.59-.39-1.18-.73-1.28-2.48-.15-3.3.22-.16.43-.32.65-.51,1.24-1.06,2.17-2.35,2.79-3.86.62-1.5.93-3.08.93-4.72,0-3.42-1.32-6.15-3.95-8.21s-6.26-3.09-10.87-3.09h-14.36c-1.1,0-1.99.9-1.99,1.99v42.41c0,1.1.9,1.99,1.99,1.99h15.09c3.15,0,5.86-.54,8.14-1.6,2.28-1.06,4.04-2.55,5.28-4.45,1.24-1.9,1.86-4.12,1.86-6.65,0-2.22-.45-4.14-1.37-5.75-.9-1.62-2.06-2.92-3.45-3.89h0ZM71.14,346.32c0-1.1.9-1.99,1.99-1.99h9.91c3.1,0,5.56.69,7.38,2.06,1.82,1.38,2.72,3.34,2.72,5.92s-.9,4.62-2.7,6.15c-1.79,1.53-4.27,2.29-7.41,2.29h-9.91c-1.1,0-1.99-.9-1.99-1.99v-12.43h0ZM91.51,380.32c-1.88,1.62-4.47,2.43-7.75,2.43h-10.64c-1.1,0-1.99-.9-1.99-1.99v-14.02c0-1.1.9-1.99,1.99-1.99h9.64c3.64,0,6.47.78,8.51,2.36,2.04,1.57,3.06,3.8,3.06,6.68s-.94,4.93-2.83,6.55h0Z"/><path class="cls-2" d="M111.31,340.34h-.46c-1.1,0-1.99.9-1.99,1.99v42.41c0,1.1.9,1.99,1.99,1.99h25.99c1.1,0,1.99-.9,1.99-1.99h0c0-1.1-.9-1.99-1.99-1.99h-21.54c-1.1,0-1.99-.9-1.99-1.99v-38.43c0-1.1-.9-1.99-1.99-1.99Z"/><path class="cls-2" d="M217.73,377.76c-1.15,1.82-2.66,3.23-4.52,4.26-1.86,1.02-4.03,1.53-6.52,1.53-2.83,0-5.38-.82-7.64-2.46-2.26-1.64-4.04-3.95-5.35-6.94-1.31-2.99-1.96-6.53-1.96-10.6s.62-7.49,1.86-10.51c1.24-3.01,2.99-5.35,5.25-7.02s4.89-2.49,7.91-2.49c3.5,0,6.41,1.04,8.71,3.12,1.94,1.75,3.2,4,3.79,6.72.2.92,1,1.59,1.95,1.59h.9c1.29,0,2.23-1.21,1.94-2.47-.48-2.12-1.3-4.03-2.47-5.71-1.6-2.31-3.65-4.09-6.15-5.35-2.5-1.26-5.37-1.89-8.6-1.89-3.86,0-7.28.98-10.27,2.93-2.99,1.95-5.33,4.72-7.02,8.31-1.69,3.59-2.53,7.82-2.53,12.69,0,4.56.78,8.66,2.36,12.3,1.57,3.64,3.84,6.5,6.81,8.6,2.97,2.11,6.47,3.16,10.51,3.16,3.42,0,6.42-.66,9.01-1.99,2.59-1.33,4.66-3.21,6.21-5.65,1.14-1.79,1.95-3.79,2.42-5.99.27-1.26-.66-2.46-1.95-2.46h-.91c-.97,0-1.78.71-1.96,1.66-.31,1.72-.9,3.27-1.78,4.65h0Z"/><path class="cls-2" d="M261.14,340.34h-.32c-.53,0-1.04.21-1.41.59l-15.04,15.1-3.07,3.19c-1.26,1.3-3.46.4-3.43-1.41l.06-3.98v-11.5c0-1.1-.9-1.99-1.99-1.99h-.4c-1.1,0-1.99.9-1.99,1.99v42.41c0,1.1.9,1.99,1.99,1.99h.4c1.1,0,1.99-.9,1.99-1.99v-15.21c0-.53.2-1.02.57-1.4l4.06-4.13c.86-.88,2.3-.77,3.03.21l16,21.7c.38.51.97.81,1.61.81h.63c1.63,0,2.58-1.86,1.61-3.18l-17.02-23.06c-.58-.79-.51-1.88.18-2.59l13.98-14.17c1.25-1.26.35-3.4-1.42-3.4h0Z"/><path class="cls-2" d="M293.17,373.9l-.81,2.55c-.59,1.86-3.22,1.86-3.8,0l-.84-2.68-11.49-32.11c-.29-.79-1.03-1.32-1.87-1.32h-.5c-1.38,0-2.34,1.36-1.88,2.66l14.95,42.41c.28.79,1.03,1.33,1.88,1.33h3.16c.85,0,1.6-.54,1.88-1.33l14.95-42.41c.46-1.3-.51-2.66-1.88-2.66h-.36c-.84,0-1.6.53-1.87,1.32l-11.49,32.24h0Z"/><path class="cls-2" d="M343.28,342.5c-2.83-1.98-6.19-2.95-10.04-2.95s-7.2.99-10.04,2.95c-2.83,1.98-5.03,4.76-6.58,8.37s-2.33,7.83-2.33,12.67.78,9.04,2.33,12.63,3.75,6.38,6.58,8.37c2.83,1.99,6.19,2.99,10.04,2.99s7.2-1,10.04-2.99c2.83-1.99,5.03-4.78,6.58-8.37s2.33-7.8,2.33-12.63-.78-9.05-2.33-12.67c-1.55-3.61-3.75-6.41-6.58-8.37ZM345.7,374.04c-1.17,3.01-2.83,5.35-4.95,7.02s-4.63,2.49-7.52,2.49-5.38-.83-7.52-2.49c-2.12-1.66-3.78-4-4.95-7.02-1.17-3.01-1.76-6.52-1.76-10.51s.59-7.49,1.76-10.51c1.17-3.01,2.83-5.35,4.95-7.02s4.63-2.49,7.52-2.49,5.38.83,7.52,2.49c2.12,1.66,3.78,3.99,4.95,6.98,1.17,2.99,1.76,6.5,1.76,10.53s-.59,7.49-1.76,10.51h0Z"/><path class="cls-2" d="M357.97,344.32h11.9c1.1,0,1.99.9,1.99,1.99v38.43c0,1.1.9,1.99,1.99,1.99h.46c1.1,0,1.99-.9,1.99-1.99v-38.43c0-1.1.9-1.99,1.99-1.99h11.9c1.1,0,1.99-.9,1.99-1.99h0c0-1.1-.9-1.99-1.99-1.99h-32.24c-1.1,0-1.99.9-1.99,1.99h0c0,1.1.9,1.99,1.99,1.99h0Z"/><path class="cls-2" d="M404.77,380.75v-14.09c0-1.1.9-1.99,1.99-1.99h16.08c1.1,0,1.99-.9,1.99-1.99h0c0-1.1-.9-1.99-1.99-1.99h-16.08c-1.1,0-1.99-.9-1.99-1.99v-12.36c0-1.1.9-1.99,1.99-1.99h24.2c1.1,0,1.99-.9,1.99-1.99h0c0-1.1-.9-1.99-1.99-1.99h-28.58c-1.1,0-1.99.9-1.99,1.99v42.41c0,1.1.9,1.99,1.99,1.99h28.85c1.1,0,1.99-.9,1.99-1.99h0c0-1.1-.9-1.99-1.99-1.99h-24.47c-1.1,0-1.99-.9-1.99-1.99h0Z"/></svg>