<svg width="500" height="500" viewBox="0 0 500 500" fill="none" xmlns="http://www.w3.org/2000/svg">
<rect width="500" height="500" fill="#09090B"/>
<path d="M292.045 109.32C291.597 109.087 291.141 108.88 290.676 108.681C288.511 107.718 286.329 106.797 284.088 105.984C277.824 103.703 271.269 102.043 264.499 101.056C259.761 100.367 254.924 99.9938 250.004 99.9938C194.862 99.9938 150 144.856 150 199.998C150 242.96 177.231 279.666 215.339 293.796C219.82 295.455 224.458 296.799 229.212 297.812C235.924 299.239 242.877 300.002 250.004 300.002C287.988 300.002 321.093 278.712 338.011 247.44C345.652 233.319 350 217.156 350 199.998C350 172.792 339.065 148.1 321.375 130.046C312.979 121.483 303.047 114.439 292.045 109.32ZM234.041 281.242C213.373 281.242 193.601 271.112 179.828 253.497C168.013 237.915 161.765 219.313 161.765 199.724C161.765 166.27 180.309 137.065 207.664 121.856C208.386 121.45 209.108 122.412 208.502 122.985C206.005 125.341 203.607 127.855 201.317 130.527C185.47 149.062 176.335 174.285 176.252 199.724C176.252 232.755 198.347 268.407 234.049 268.407C265.91 268.407 291.821 237.592 291.821 199.724C291.821 181.927 285.856 164.843 275.667 152.166C275.31 151.717 275.733 151.087 276.281 151.245C293.505 156.339 306.374 176.144 306.374 199.724C306.374 220.55 298.816 241.276 285.648 256.6C271.991 272.481 253.663 281.234 234.041 281.242ZM220.176 199.708C220.176 176.119 231.635 155.758 248.063 146.623C250.095 145.486 252.609 145.636 254.485 147.005L257.994 149.569C272.398 160.081 281.35 179.297 281.35 199.732C281.35 223.321 269.892 243.682 253.464 252.825C251.431 253.962 248.926 253.821 247.042 252.443L243.524 249.88C229.121 239.367 220.168 220.143 220.168 199.716L220.176 199.708ZM339.77 199.708C339.77 233.161 321.218 262.367 293.871 277.575C293.149 277.982 292.427 277.019 293.033 276.447C295.53 274.09 297.928 271.576 300.218 268.896C316.065 250.361 325.2 225.146 325.283 199.699C325.283 166.669 303.188 131.016 267.486 131.016C235.634 131.016 209.714 161.832 209.714 199.699C209.714 217.496 215.679 234.58 225.868 247.266C226.225 247.714 225.802 248.345 225.254 248.187C208.029 243.093 195.152 223.296 195.152 199.724C195.152 178.907 202.711 158.181 215.878 142.856C229.535 126.967 247.872 118.222 267.503 118.222C288.154 118.222 307.926 128.345 321.74 146.001C333.547 161.549 339.778 180.118 339.761 199.699L339.77 199.708Z" fill="white"/>
<path d="M87.8949 364.673H104.521C105.621 364.673 106.518 363.776 106.518 362.675C106.518 361.575 105.621 360.678 104.521 360.678H87.8949C87.0904 360.678 86.4339 360.022 86.4339 359.217V345.782C86.4339 344.977 87.0904 344.321 87.8949 344.321H112.63C113.73 344.321 114.627 343.424 114.627 342.323C114.627 341.223 113.73 340.326 112.63 340.326H85.3613C83.5304 340.326 82.0417 341.815 82.0417 343.646V385.275C82.0417 386.079 82.6982 386.736 83.5027 386.736H112.898C113.999 386.736 114.895 385.839 114.895 384.738C114.895 383.638 113.999 382.741 112.898 382.741H87.8949C87.0904 382.741 86.4339 382.084 86.4339 381.28V366.115C86.4339 365.311 87.0904 364.654 87.8949 364.654V364.673Z" fill="white"/>
<path d="M154.657 340.335H154.416C153.732 340.335 153.103 340.677 152.733 341.251L145.872 351.968L142.053 357.95C141.48 358.847 140.158 358.847 139.584 357.95L135.83 352.042L128.969 341.26C128.599 340.687 127.97 340.335 127.286 340.335H126.889C125.317 340.335 124.364 342.074 125.206 343.396L137.189 362.287C137.495 362.768 137.495 363.378 137.189 363.85L124.605 383.675C123.763 385.006 124.716 386.736 126.288 386.736H126.5C127.175 386.736 127.804 386.393 128.174 385.829L135.895 373.966L139.584 367.983C140.148 367.058 141.489 367.058 142.063 367.974L145.798 373.901L153.39 385.811C153.76 386.384 154.388 386.736 155.073 386.736H155.406C156.978 386.736 157.93 384.997 157.089 383.675L144.365 363.591C144.06 363.11 144.06 362.5 144.365 362.019L156.321 343.405C157.172 342.074 156.219 340.335 154.638 340.335H154.657Z" fill="white"/>
<path d="M194.381 342.037C192.05 340.909 189.313 340.344 186.17 340.344H172.725C170.561 340.344 168.813 342.101 168.813 344.256V384.757C168.813 385.857 169.71 386.754 170.811 386.754H171.273C172.373 386.754 173.27 385.857 173.27 384.757V369.666C173.27 368.861 173.927 368.205 174.731 368.205H185.171C188.454 368.205 191.339 367.622 193.844 366.448C196.35 365.274 198.292 363.637 199.661 361.529C201.029 359.43 201.723 356.97 201.723 354.178C201.723 351.385 201.075 348.888 199.79 346.826C198.505 344.764 196.702 343.165 194.371 342.037H194.381ZM193.687 361.455C191.514 363.295 188.657 364.21 185.106 364.21H174.731C173.927 364.21 173.27 363.554 173.27 362.749V345.791C173.27 344.986 173.927 344.33 174.731 344.33H186.17C189.406 344.33 192.013 345.227 193.983 347.021C195.953 348.815 196.942 351.2 196.942 354.168C196.942 357.137 195.86 359.615 193.687 361.446V361.455Z" fill="white"/>
<path d="M216.684 340.335H216.222C215.121 340.335 214.224 341.232 214.224 342.333V385.284C214.224 386.088 214.881 386.745 215.685 386.745H242.214C243.315 386.745 244.212 385.848 244.212 384.747C244.212 383.647 243.315 382.75 242.214 382.75H220.142C219.338 382.75 218.681 382.094 218.681 381.289V342.323C218.681 341.223 217.784 340.326 216.684 340.326V340.335Z" fill="white"/>
<path d="M280.653 342.499C277.814 340.529 274.467 339.54 270.611 339.54C266.755 339.54 263.408 340.529 260.569 342.499C257.73 344.469 255.539 347.261 253.985 350.877C252.432 354.492 251.655 358.709 251.655 363.545C251.655 368.381 252.432 372.588 253.985 376.176C255.539 379.763 257.73 382.556 260.569 384.553C263.408 386.551 266.755 387.54 270.611 387.54C274.467 387.54 277.814 386.541 280.653 384.553C283.492 382.556 285.683 379.763 287.237 376.176C288.79 372.588 289.567 368.371 289.567 363.545C289.567 358.718 288.79 354.492 287.237 350.877C285.683 347.261 283.492 344.469 280.653 342.499ZM283.076 374.049C281.901 377.063 280.246 379.403 278.119 381.067C275.993 382.732 273.487 383.564 270.602 383.564C267.717 383.564 265.22 382.732 263.093 381.067C260.967 379.403 259.311 377.063 258.137 374.049C256.963 371.034 256.38 367.53 256.38 363.545C256.38 359.559 256.972 356.055 258.137 353.04C259.311 350.026 260.967 347.686 263.093 346.031C265.22 344.367 267.726 343.535 270.602 343.535C273.478 343.535 275.993 344.367 278.119 346.031C280.246 347.696 281.901 350.017 283.076 353.013C284.25 356.008 284.842 359.522 284.842 363.554C284.842 367.585 284.25 371.044 283.076 374.058V374.049Z" fill="white"/>
<path d="M347.211 364.673H363.837C364.937 364.673 365.834 363.776 365.834 362.675C365.834 361.575 364.937 360.678 363.837 360.678H347.211C346.407 360.678 345.75 360.022 345.75 359.217V345.782C345.75 344.977 346.407 344.321 347.211 344.321H371.946C373.047 344.321 373.944 343.424 373.944 342.323C373.944 341.223 373.047 340.326 371.946 340.326H344.678C342.847 340.326 341.358 341.815 341.358 343.646V383.416C341.358 385.247 342.847 386.736 344.678 386.736H372.214C373.315 386.736 374.212 385.839 374.212 384.738C374.212 383.638 373.315 382.741 372.214 382.741H347.211C346.407 382.741 345.75 382.084 345.75 381.28V366.115C345.75 365.311 346.407 364.654 347.211 364.654V364.673Z" fill="white"/>
<path d="M413.437 361.945C414.898 360.706 416.016 359.3 416.793 357.719C417.57 356.147 417.958 354.492 417.958 352.763C417.958 350.146 417.302 347.908 415.998 346.05C414.694 344.191 412.91 342.767 410.644 341.796C408.388 340.825 405.836 340.335 402.997 340.335H387.351C386.186 340.335 385.243 341.278 385.243 342.443V384.636C385.243 385.802 386.186 386.745 387.351 386.745H387.527C388.692 386.745 389.635 385.802 389.635 384.636V368.039C389.635 366.873 390.579 365.93 391.744 365.93H395.637C396.977 365.93 398.235 366.55 399.058 367.613L413.187 385.931C413.585 386.449 414.204 386.754 414.851 386.754C416.599 386.754 417.588 384.738 416.516 383.36L404.467 367.789C403.857 367.003 404.292 365.838 405.272 365.662C406.15 365.505 407.158 365.265 408.083 364.885C410.191 364.173 411.976 363.202 413.437 361.963V361.945ZM401 362.01H391.956C390.671 362.01 389.626 360.965 389.626 359.679V345.828C389.626 344.996 390.301 344.321 391.133 344.321H402.988C404.846 344.321 406.557 344.663 408.11 345.347C409.664 346.031 410.903 347.002 411.837 348.241C412.771 349.48 413.233 350.988 413.233 352.763C413.233 354.622 412.697 356.258 411.633 357.645C410.57 359.041 409.128 360.114 407.315 360.872C405.494 361.631 403.395 362 401 362V362.01Z" fill="white"/>
<path d="M326.998 361.945C328.459 360.706 329.578 359.3 330.354 357.719C331.131 356.147 331.52 354.492 331.52 352.763C331.52 350.146 330.863 347.908 329.559 346.05C328.255 344.191 326.471 342.767 324.205 341.796C321.949 340.825 319.397 340.335 316.558 340.335H300.913C299.748 340.335 298.804 341.278 298.804 342.443V384.636C298.804 385.802 299.748 386.745 300.913 386.745H301.088C302.253 386.745 303.197 385.802 303.197 384.636V368.039C303.197 366.873 304.14 365.93 305.305 365.93H309.198C310.539 365.93 311.796 366.55 312.619 367.613L326.748 385.931C327.146 386.449 327.765 386.754 328.413 386.754C330.16 386.754 331.15 384.738 330.077 383.36L318.028 367.789C317.418 367.003 317.853 365.838 318.833 365.662C319.711 365.505 320.719 365.265 321.644 364.885C323.752 364.173 325.537 363.202 326.998 361.963V361.945ZM314.561 362.01H305.518C304.232 362.01 303.187 360.965 303.187 359.679V345.828C303.187 344.996 303.862 344.321 304.695 344.321H316.549C318.408 344.321 320.118 344.663 321.672 345.347C323.225 346.031 324.464 347.002 325.398 348.241C326.332 349.48 326.794 350.988 326.794 352.763C326.794 354.622 326.258 356.258 325.195 357.645C324.131 359.041 322.689 360.114 320.876 360.872C319.055 361.631 316.956 362 314.561 362V362.01Z" fill="white"/>
</svg>
