<svg width="500" height="500" viewBox="0 0 500 500" fill="none" xmlns="http://www.w3.org/2000/svg">
<rect width="500" height="500" fill="#09090B"/>
<path d="M292.045 109.32C291.597 109.087 291.141 108.88 290.676 108.681C288.511 107.718 286.329 106.797 284.088 105.984C277.824 103.703 271.269 102.043 264.499 101.056C259.761 100.367 254.924 99.9938 250.004 99.9938C194.862 99.9938 150 144.856 150 199.998C150 242.96 177.231 279.666 215.339 293.796C219.82 295.455 224.458 296.799 229.212 297.812C235.924 299.239 242.877 300.002 250.004 300.002C287.988 300.002 321.093 278.712 338.011 247.44C345.652 233.319 350 217.156 350 199.998C350 172.792 339.065 148.1 321.375 130.046C312.979 121.483 303.047 114.439 292.045 109.32ZM234.041 281.242C213.373 281.242 193.601 271.112 179.828 253.497C168.013 237.915 161.765 219.313 161.765 199.724C161.765 166.27 180.309 137.065 207.664 121.856C208.386 121.45 209.108 122.412 208.502 122.985C206.005 125.341 203.607 127.855 201.317 130.527C185.47 149.062 176.335 174.285 176.252 199.724C176.252 232.755 198.347 268.407 234.049 268.407C265.91 268.407 291.821 237.592 291.821 199.724C291.821 181.927 285.856 164.843 275.667 152.166C275.31 151.717 275.733 151.087 276.281 151.245C293.505 156.339 306.374 176.144 306.374 199.724C306.374 220.55 298.816 241.276 285.648 256.6C271.991 272.481 253.663 281.234 234.041 281.242ZM220.176 199.708C220.176 176.119 231.635 155.758 248.063 146.623C250.095 145.486 252.609 145.636 254.485 147.005L257.994 149.569C272.398 160.081 281.35 179.297 281.35 199.732C281.35 223.321 269.892 243.682 253.464 252.825C251.431 253.962 248.926 253.821 247.042 252.443L243.524 249.88C229.121 239.367 220.168 220.143 220.168 199.716L220.176 199.708ZM339.77 199.708C339.77 233.161 321.218 262.367 293.871 277.575C293.149 277.982 292.427 277.019 293.033 276.447C295.53 274.09 297.928 271.576 300.218 268.896C316.065 250.361 325.2 225.146 325.283 199.699C325.283 166.669 303.188 131.016 267.486 131.016C235.634 131.016 209.714 161.832 209.714 199.699C209.714 217.496 215.679 234.58 225.868 247.266C226.225 247.714 225.802 248.345 225.254 248.187C208.029 243.093 195.152 223.296 195.152 199.724C195.152 178.907 202.711 158.181 215.878 142.856C229.535 126.967 247.872 118.222 267.503 118.222C288.154 118.222 307.926 128.345 321.74 146.001C333.547 161.549 339.778 180.118 339.761 199.699L339.77 199.708Z" fill="white"/>
<path d="M168.498 383.705V343.383C168.498 341.703 169.856 340.346 171.536 340.346H181.928C185.253 340.346 188.24 340.889 190.903 341.975C193.559 343.061 195.824 344.613 197.682 346.632C199.54 348.651 200.982 351.078 202 353.911C203.018 356.745 203.527 359.917 203.527 363.421C203.527 366.925 203.018 370.166 202 373.025C200.982 375.884 199.54 378.344 197.682 380.405C195.824 382.467 193.559 384.036 190.903 385.122C188.248 386.208 185.253 386.751 181.928 386.751H171.536C169.856 386.751 168.498 385.394 168.498 383.714V383.705ZM172.952 380.6C172.952 381.788 173.919 382.755 175.107 382.755H181.928C185.338 382.755 188.308 381.958 190.836 380.363C193.364 378.768 195.323 376.511 196.723 373.585C198.123 370.658 198.819 367.273 198.819 363.413C198.819 359.553 198.123 356.134 196.723 353.275C195.323 350.416 193.364 348.21 190.836 346.658C188.308 345.105 185.338 344.333 181.928 344.333H175.107C173.919 344.333 172.952 345.3 172.952 346.488V380.609V380.6Z" fill="white"/>
<path d="M228.197 387.54C224.346 387.54 220.995 386.539 218.161 384.545C215.328 382.552 213.13 379.761 211.578 376.172C210.025 372.583 209.253 368.376 209.253 363.54C209.253 358.704 210.025 354.488 211.578 350.874C213.13 347.26 215.319 344.469 218.161 342.501C220.995 340.533 224.346 339.54 228.197 339.54C232.049 339.54 235.4 340.524 238.233 342.501C241.067 344.477 243.264 347.268 244.817 350.874C246.369 354.488 247.141 358.704 247.141 363.54C247.141 368.376 246.361 372.583 244.817 376.172C243.264 379.761 241.075 382.552 238.233 384.545C235.4 386.539 232.049 387.54 228.197 387.54ZM228.197 383.553C231.082 383.553 233.584 382.721 235.714 381.059C237.843 379.396 239.489 377.063 240.668 374.043C241.839 371.031 242.433 367.527 242.433 363.54C242.433 359.553 241.847 355.998 240.668 353.003C239.497 350.009 237.843 347.684 235.714 346.021C233.584 344.359 231.082 343.527 228.197 343.527C225.313 343.527 222.81 344.359 220.689 346.021C218.56 347.684 216.914 350.017 215.735 353.037C214.564 356.049 213.97 359.553 213.97 363.54C213.97 367.527 214.556 371.031 215.735 374.043C216.906 377.054 218.56 379.396 220.689 381.059C222.819 382.721 225.321 383.553 228.197 383.553Z" fill="white"/>
<path d="M272.337 387.54C268.308 387.54 264.804 386.488 261.835 384.384C258.865 382.28 256.592 379.413 255.022 375.773C253.444 372.142 252.664 368.036 252.664 363.472C252.664 358.594 253.504 354.361 255.192 350.772C256.88 347.184 259.213 344.41 262.208 342.467C265.203 340.516 268.621 339.54 272.481 339.54C275.714 339.54 278.59 340.168 281.092 341.432C283.595 342.696 285.648 344.477 287.243 346.785C288.371 348.414 289.177 350.246 289.661 352.291C289.983 353.648 288.965 354.963 287.565 354.963H286.997C285.979 354.963 285.122 354.242 284.893 353.249C284.291 350.577 283.035 348.38 281.126 346.649C278.819 344.571 275.917 343.527 272.414 343.527C269.402 343.527 266.763 344.359 264.498 346.021C262.242 347.684 260.486 350.017 259.247 353.037C258.008 356.049 257.389 359.553 257.389 363.54C257.389 367.527 258.042 371.15 259.349 374.144C260.655 377.139 262.437 379.455 264.702 381.092C266.959 382.73 269.512 383.553 272.346 383.553C274.823 383.553 277.003 383.044 278.861 382.026C280.719 381.008 282.229 379.591 283.383 377.767C284.24 376.418 284.825 374.916 285.139 373.245C285.334 372.21 286.208 371.447 287.26 371.447H287.837C289.228 371.447 290.246 372.745 289.941 374.102C289.466 376.223 288.676 378.157 287.565 379.896C286.013 382.331 283.943 384.214 281.347 385.546C278.751 386.878 275.748 387.54 272.337 387.54Z" fill="white"/>
<path d="M315.417 387.54C312.006 387.54 308.986 386.887 306.373 385.58C303.76 384.274 301.716 382.348 300.257 379.794C299.103 377.792 298.407 375.425 298.161 372.694C298.051 371.447 299.06 370.386 300.307 370.386H300.46C301.588 370.386 302.496 371.26 302.607 372.38C302.929 375.637 304.074 378.217 306.034 380.125C308.384 382.407 311.489 383.553 315.34 383.553C318.708 383.553 321.449 382.755 323.552 381.16C325.656 379.565 326.708 377.351 326.708 374.509C326.708 372.6 326.199 371.073 325.181 369.92C324.163 368.766 322.823 367.841 321.16 367.129C319.497 366.424 317.69 365.797 315.739 365.271C313.788 364.736 311.82 364.176 309.826 363.574C307.832 362.972 306 362.234 304.346 361.343C302.683 360.46 301.342 359.281 300.324 357.822C299.306 356.363 298.797 354.48 298.797 352.172C298.797 349.644 299.442 347.438 300.723 345.555C302.004 343.671 303.811 342.195 306.144 341.135C308.469 340.074 311.209 339.54 314.356 339.54C317.504 339.54 320.363 340.117 322.797 341.271C325.232 342.424 327.149 344.019 328.549 346.055C329.499 347.447 330.136 349.016 330.467 350.755C330.713 352.079 329.686 353.3 328.337 353.3H328.218C327.2 353.3 326.293 352.588 326.114 351.587C325.894 350.331 325.419 349.203 324.698 348.185C323.654 346.726 322.237 345.58 320.439 344.757C318.64 343.934 316.613 343.527 314.356 343.527C311.124 343.527 308.52 344.308 306.543 345.852C304.575 347.404 303.582 349.466 303.582 352.036C303.582 353.767 304.091 355.141 305.109 356.159C306.127 357.177 307.468 358.009 309.13 358.653C310.793 359.298 312.609 359.875 314.585 360.384C316.553 360.893 318.53 361.445 320.498 362.047C322.467 362.649 324.29 363.43 325.953 364.405C327.616 365.381 328.956 366.662 329.974 368.265C330.992 369.86 331.502 371.896 331.502 374.382C331.502 377.173 330.789 379.548 329.372 381.491C327.955 383.442 326.03 384.936 323.586 385.979C321.152 387.022 318.42 387.54 315.408 387.54H315.417Z" fill="white"/>
</svg>
