<svg width="500" height="500" viewBox="0 0 500 500" fill="none" xmlns="http://www.w3.org/2000/svg">
<rect width="500" height="500" fill="#09090B"/>
<path d="M313.068 113.983C312.396 113.634 311.711 113.323 311.014 113.024C307.766 111.581 304.493 110.199 301.133 108.979C291.736 105.557 281.904 103.068 271.749 101.587C264.642 100.554 257.386 99.9938 250.006 99.9938C167.293 99.9938 100 167.287 100 250C100 314.443 140.846 369.502 198.009 390.697C204.729 393.186 211.686 395.202 218.818 396.721C228.886 398.861 239.315 400.006 250.006 400.006C306.982 400.006 356.64 368.071 382.016 321.164C393.479 299.981 400 275.737 400 250C400 209.191 383.597 172.153 357.063 145.072C344.468 132.228 329.571 121.661 313.068 113.983ZM226.061 371.867C195.059 371.867 165.401 356.671 144.742 330.249C127.019 306.876 117.648 278.973 117.648 249.589C117.648 199.409 145.464 155.601 186.497 132.788C187.579 132.178 188.662 133.622 187.754 134.48C184.007 138.015 180.411 141.786 176.976 145.793C153.205 173.597 139.502 211.431 139.378 249.589C139.378 299.135 172.52 352.614 226.073 352.614C273.864 352.614 312.732 306.391 312.732 249.589C312.732 222.894 303.783 197.268 288.5 178.251C287.965 177.579 288.6 176.633 289.421 176.87C315.258 184.512 334.561 214.219 334.561 249.589C334.561 280.828 323.223 311.917 303.472 334.904C282.987 358.724 255.495 371.854 226.061 371.867ZM205.264 249.564C205.264 214.182 222.452 183.64 247.094 169.938C250.143 168.233 253.914 168.457 256.727 170.51L261.991 174.356C283.597 190.124 297.025 218.948 297.025 249.602C297.025 284.984 279.838 315.526 255.196 329.241C252.147 330.946 248.388 330.734 245.563 328.668L240.286 324.823C218.681 309.054 205.252 280.218 205.252 249.577L205.264 249.564ZM384.655 249.564C384.655 299.745 356.826 343.553 315.806 366.366C314.723 366.976 313.64 365.532 314.549 364.673C318.295 361.139 321.892 357.368 325.327 353.348C349.098 325.545 362.8 287.722 362.925 249.552C362.925 200.006 329.782 146.528 276.229 146.528C228.451 146.528 189.571 192.75 189.571 249.552C189.571 276.248 198.519 301.873 213.802 320.902C214.337 321.574 213.703 322.52 212.881 322.284C187.044 314.642 167.729 284.947 167.729 249.589C167.729 218.363 179.067 187.274 198.818 164.288C219.303 140.454 246.808 127.337 276.254 127.337C307.231 127.337 336.889 142.52 357.61 169.004C375.32 192.327 384.667 220.18 384.642 249.552L384.655 249.564Z" fill="white"/>
</svg>
