<svg width="35" height="41" viewBox="0 0 35 41" fill="none" xmlns="http://www.w3.org/2000/svg">
    <path d="M8.80021 0.279829C8.83397 0.125284 8.98957 0 9.14775 0H16.8812C17.0394 0 17.1403 0.125284 17.1065 0.279829L15.4564 7.83521C15.4227 7.98975 15.2671 8.11504 15.1089 8.11504H7.37542C7.21723 8.11504 7.11636 7.98975 7.15011 7.83521L8.80021 0.279829Z" fill="white" />
    <path d="M18.8251 0.279829C18.8588 0.125284 19.0144 0 19.1726 0H32.0617C33.96 0 35.1705 1.5034 34.7655 3.35795L30.243 24.0653C30.2092 24.2198 30.0536 24.3451 29.8954 24.3451H22.567C22.4088 24.3451 22.2532 24.4704 22.2195 24.6249L20.5694 32.1803C20.5356 32.3349 20.6365 32.4601 20.7947 32.4601H28.1231C28.2813 32.4601 28.3822 32.5854 28.3484 32.74L26.6983 40.2954C26.6645 40.4499 26.5089 40.5752 26.3508 40.5752H18.6173C18.4591 40.5752 18.3582 40.4499 18.392 40.2954L20.0421 32.74C20.0758 32.5854 19.975 32.4601 19.8168 32.4601H12.0833C11.9251 32.4601 11.8242 32.3349 11.858 32.1803L13.5081 24.6249C13.5418 24.4704 13.6974 24.3451 13.8556 24.3451H21.5891C21.7473 24.3451 21.9029 24.2198 21.9366 24.0653L25.0535 9.79401C25.256 8.86674 24.6508 8.11504 23.7016 8.11504H17.4003C17.2421 8.11504 17.1412 7.98975 17.175 7.83521L18.8251 0.279829Z" fill="white" />
    <path d="M7.00873 9.79401C6.85054 9.79401 6.69495 9.91929 6.66119 10.0738L0.0607848 40.2954C0.0270312 40.4499 0.127907 40.5752 0.286094 40.5752H8.01957C8.17775 40.5752 8.33335 40.4499 8.36711 40.2954L14.9675 10.0738C15.0013 9.91929 14.9004 9.79401 14.7422 9.79401H7.00873Z" fill="white" />
</svg>
