<svg width="500" height="500" viewBox="0 0 500 500" fill="none" xmlns="http://www.w3.org/2000/svg">
<rect width="500" height="500" fill="#09090B"/>
<path d="M292.045 109.32C291.597 109.087 291.141 108.88 290.676 108.681C288.511 107.718 286.329 106.797 284.088 105.984C277.824 103.703 271.269 102.043 264.499 101.056C259.761 100.367 254.924 99.9938 250.004 99.9938C194.862 99.9938 150 144.856 150 199.998C150 242.96 177.231 279.666 215.339 293.796C219.82 295.455 224.458 296.799 229.212 297.812C235.924 299.239 242.877 300.002 250.004 300.002C287.988 300.002 321.093 278.712 338.011 247.44C345.652 233.319 350 217.156 350 199.998C350 172.792 339.065 148.1 321.375 130.046C312.979 121.483 303.047 114.439 292.045 109.32ZM234.041 281.242C213.373 281.242 193.601 271.112 179.828 253.497C168.013 237.915 161.765 219.313 161.765 199.724C161.765 166.27 180.309 137.065 207.664 121.856C208.386 121.45 209.108 122.412 208.502 122.985C206.005 125.341 203.607 127.855 201.317 130.527C185.47 149.062 176.335 174.285 176.252 199.724C176.252 232.755 198.347 268.407 234.049 268.407C265.91 268.407 291.821 237.592 291.821 199.724C291.821 181.927 285.856 164.843 275.667 152.166C275.31 151.717 275.733 151.087 276.281 151.245C293.505 156.339 306.374 176.144 306.374 199.724C306.374 220.55 298.816 241.276 285.648 256.6C271.991 272.481 253.663 281.234 234.041 281.242ZM220.176 199.708C220.176 176.119 231.635 155.758 248.063 146.623C250.095 145.486 252.609 145.636 254.485 147.005L257.994 149.569C272.398 160.081 281.35 179.297 281.35 199.732C281.35 223.321 269.892 243.682 253.464 252.825C251.431 253.962 248.926 253.821 247.042 252.443L243.524 249.88C229.121 239.367 220.168 220.143 220.168 199.716L220.176 199.708ZM339.77 199.708C339.77 233.161 321.218 262.367 293.871 277.575C293.149 277.982 292.427 277.019 293.033 276.447C295.53 274.09 297.928 271.576 300.218 268.896C316.065 250.361 325.2 225.146 325.283 199.699C325.283 166.669 303.188 131.016 267.486 131.016C235.634 131.016 209.714 161.832 209.714 199.699C209.714 217.496 215.679 234.58 225.868 247.266C226.225 247.714 225.802 248.345 225.254 248.187C208.029 243.093 195.152 223.296 195.152 199.724C195.152 178.907 202.711 158.181 215.878 142.856C229.535 126.967 247.872 118.222 267.503 118.222C288.154 118.222 307.926 128.345 321.74 146.001C333.547 161.549 339.778 180.118 339.761 199.699L339.77 199.708Z" fill="white"/>
<path d="M164.461 373.503C164.318 374.985 162.195 375.071 161.937 373.599L161.918 373.503L155.406 341.338C155.196 340.305 154.297 339.569 153.245 339.569H152.117C151.065 339.569 150.166 340.305 149.956 341.338L143.378 373.513L143.234 374.326C142.966 375.769 140.872 375.693 140.71 374.24L140.633 373.522L136.158 341.491C136.005 340.401 135.068 339.588 133.969 339.588H133.892C132.554 339.588 131.521 340.773 131.703 342.103L137.813 385.637C137.966 386.727 138.903 387.54 140.002 387.54H142.737C143.789 387.54 144.688 386.804 144.898 385.781L151.199 355.25L151.39 354.122C151.639 352.697 153.685 352.716 153.905 354.141L154.077 355.25L160.178 385.762C160.388 386.794 161.287 387.54 162.339 387.54H164.93C166.029 387.54 166.966 386.727 167.119 385.637L173.229 342.103C173.421 340.773 172.388 339.588 171.04 339.588C169.94 339.588 169.003 340.401 168.85 341.491L164.442 373.522L164.461 373.503Z" fill="white"/>
<path d="M191.617 342.485L176.949 384.777C176.48 386.115 177.475 387.511 178.9 387.511H179.349C180.229 387.511 181.003 386.957 181.29 386.134L185.191 374.947C185.478 374.115 186.262 373.57 187.132 373.57H204.324C205.204 373.57 205.988 374.125 206.275 374.957L210.138 386.125C210.425 386.957 211.209 387.511 212.088 387.511H212.538C213.953 387.511 214.947 386.115 214.488 384.777L199.821 342.485C199.218 340.735 197.564 339.569 195.719 339.569C193.864 339.569 192.219 340.745 191.617 342.485ZM189.331 369.449C188.251 369.449 187.496 368.388 187.849 367.365L192.907 352.888L194.944 346.491C195.202 345.669 196.378 345.669 196.637 346.491L198.606 352.745L203.664 367.355C204.018 368.369 203.263 369.44 202.182 369.44H189.331V369.449Z" fill="white"/>
<path d="M224.662 339.569H224.184C223.046 339.569 222.119 340.487 222.119 341.634V385.465C222.119 386.603 223.037 387.53 224.184 387.53H251.043C252.181 387.53 253.108 386.613 253.108 385.465C253.108 384.327 252.191 383.4 251.043 383.4H228.783C227.645 383.4 226.718 382.482 226.718 381.334V341.624C226.718 340.487 225.8 339.559 224.653 339.559L224.662 339.569Z" fill="white"/>
<path d="M261.255 339.569H260.777C259.639 339.569 258.712 340.487 258.712 341.634V385.465C258.712 386.603 259.63 387.53 260.777 387.53H287.636C288.774 387.53 289.701 386.613 289.701 385.465C289.701 384.327 288.783 383.4 287.636 383.4H265.376C264.238 383.4 263.311 382.482 263.311 381.334V341.624C263.311 340.487 262.393 339.559 261.245 339.559L261.255 339.569Z" fill="white"/>
<path d="M301.806 364.706H318.434C319.572 364.706 320.5 363.789 320.5 362.641C320.5 361.503 319.582 360.576 318.434 360.576H301.806C300.668 360.576 299.741 359.658 299.741 358.51V345.736C299.741 344.598 300.659 343.671 301.806 343.671H326.81C327.948 343.671 328.876 342.753 328.876 341.605C328.876 340.467 327.958 339.54 326.81 339.54H297.274C296.136 339.54 295.209 340.458 295.209 341.605V385.436C295.209 386.574 296.127 387.502 297.274 387.502H327.088C328.225 387.502 329.153 386.584 329.153 385.436C329.153 384.299 328.235 383.371 327.088 383.371H301.806C300.668 383.371 299.741 382.453 299.741 381.306V366.743C299.741 365.605 300.659 364.678 301.806 364.678V364.706Z" fill="white"/>
<path d="M334.202 341.624C334.202 342.762 335.12 343.69 336.267 343.69H346.89C348.028 343.69 348.955 344.608 348.955 345.755V385.465C348.955 386.603 349.873 387.53 351.021 387.53H351.499C352.637 387.53 353.564 386.613 353.564 385.465V345.755C353.564 344.617 354.482 343.69 355.63 343.69H366.253C367.391 343.69 368.318 342.772 368.318 341.624C368.318 340.487 367.4 339.559 366.253 339.559H336.277C335.139 339.559 334.211 340.477 334.211 341.624H334.202Z" fill="white"/>
</svg>
