<svg width="162" height="30" viewBox="0 0 162 30" fill="white" xmlns="http://www.w3.org/2000/svg">
<path d="M161.12 14.0587L150.722 0.630839C150.451 0.270359 149.909 0 149.457 0H101.539V30H149.999C150.451 30 150.813 29.8198 151.084 29.4593L161.21 16.4919C161.662 15.771 161.662 14.7796 161.12 14.0587ZM124.232 24.6928H107.958V5.13683H123.87V10.0934H114.467V12.3464H122.785V17.1228H114.467V19.6461H124.232V24.6928ZM139.963 24.6928L136.618 19.4659L133.273 24.6928H125.769L132.821 14.8698L125.95 5.22695H133.363L136.709 10.1835L139.963 5.22695H147.106L140.325 14.6895L147.558 24.7829H139.963V24.6928Z" fill="white"/>
<path fill-rule="evenodd" clip-rule="evenodd" d="M107.931 24.6928H124.205V19.6461H114.44V17.1228H122.758V12.3464H114.44V10.0934H123.843V5.13684H107.931V24.6928ZM136.591 19.4659L139.936 24.6928V24.783H147.531L140.298 14.6895L147.079 5.22696H139.936L136.681 10.1835L133.336 5.22696H125.923L132.794 14.8698L125.742 24.6928H133.246L136.591 19.4659Z" fill="black"/>
<path opacity="0.95" fill-rule="evenodd" clip-rule="evenodd" d="M4.29157 18.5016C4.42781 19.4845 4.69541 20.2192 5.09438 20.7057C5.82426 21.5913 7.0747 22.0341 8.84579 22.0341C9.90651 22.0341 10.7678 21.9173 11.4295 21.6838C12.6848 21.2361 13.3126 20.4041 13.3126 19.1877C13.3126 18.4772 13.0011 17.9275 12.3783 17.5382C11.7555 17.1587 10.7775 16.823 9.4443 16.531L7.16716 16.0201C4.92892 15.5141 3.38166 14.9642 2.5253 14.3706C1.0753 13.378 0.3503 11.8258 0.3503 9.71416C0.3503 7.78731 1.05096 6.18657 2.45229 4.91172C3.85362 3.63694 5.91177 2.99951 8.62685 2.99951C10.8943 2.99951 12.8284 3.6004 14.4289 4.80225C16.0298 6.0041 16.8692 7.7484 16.9473 10.0353H12.6265C12.5486 8.74101 11.9842 7.82141 10.9332 7.27644C10.2325 6.91638 9.36161 6.73635 8.32034 6.73635C7.16228 6.73635 6.2378 6.96992 5.54689 7.43701C4.85592 7.9041 4.5105 8.5561 4.5105 9.393C4.5105 10.1618 4.85111 10.736 5.53225 11.1155C5.97019 11.3685 6.90437 11.6653 8.33491 12.0059L12.0426 12.8963C13.6675 13.2856 14.8939 13.8062 15.7209 14.4582C17.0059 15.4703 17.6481 16.9348 17.6481 18.8519C17.6481 20.8176 16.8964 22.4501 15.3925 23.7492C13.8892 25.0484 11.7652 25.698 9.02101 25.698C6.21835 25.698 4.0142 25.0581 2.40851 23.7784C0.802812 22.4988 0 20.7398 0 18.5016H4.29157ZM19.0056 12.3416V9.37843H21.2243V4.94093H25.3408V9.37843H27.9241V12.3416H25.3408V20.7495C25.3408 21.4015 25.4231 21.8078 25.5883 21.9684C25.7543 22.1289 26.2598 22.2093 27.1069 22.2093C27.2331 22.2093 27.367 22.2068 27.5079 22.202C27.6494 22.1971 27.7882 22.1897 27.9241 22.1801V25.2892L25.9537 25.3622C23.9881 25.4304 22.6452 25.0897 21.925 24.3404C21.4578 23.8636 21.2243 23.1289 21.2243 22.1363V12.3416H19.0056ZM36.8719 12.2395C35.909 12.2395 35.1616 12.5412 34.6317 13.1445C34.101 13.7478 33.7678 14.5653 33.6318 15.5968H40.0981C40.0298 14.4971 39.6965 13.6627 39.0982 13.0934C38.5 12.5241 37.7574 12.2395 36.8719 12.2395ZM36.8719 8.80913C38.1953 8.80913 39.3876 9.05728 40.4481 9.55358C41.5093 10.0499 42.3851 10.8332 43.076 11.9037C43.6987 12.8477 44.1024 13.9424 44.2872 15.188C44.3945 15.9179 44.4384 16.9689 44.4189 18.341H33.5293C33.5879 19.9369 34.0892 21.0561 35.0333 21.6983C35.6071 22.0974 36.2981 22.2968 37.1055 22.2968C37.9624 22.2968 38.6576 22.0535 39.1931 21.567C39.4852 21.3042 39.7432 20.9393 39.967 20.4722H44.2146C44.1073 21.4162 43.6157 22.3747 42.74 23.3478C41.3775 24.8951 39.4706 25.6687 37.0183 25.6687C34.9942 25.6687 33.2086 25.0167 31.6607 23.7127C30.1135 22.4088 29.3402 20.2873 29.3402 17.3484C29.3402 14.5944 30.0382 12.4827 31.4348 11.0133C32.8314 9.54382 34.6435 8.80913 36.8719 8.80913ZM55.994 17.4068C55.7318 17.5722 55.4661 17.706 55.1991 17.8082C54.9314 17.9104 54.5639 18.0053 54.0967 18.0929L53.1624 18.268C52.2867 18.4238 51.6592 18.6135 51.2792 18.8373C50.637 19.2168 50.3163 19.8056 50.3163 20.6036C50.3163 21.3139 50.5129 21.8272 50.9075 22.1435C51.3015 22.4598 51.7805 22.6179 52.3453 22.6179C53.2405 22.6179 54.0654 22.3552 54.8191 21.8297C55.5735 21.3042 55.9654 20.3457 55.994 18.9541V17.4068ZM53.4692 15.4654C54.2376 15.3681 54.7877 15.2465 55.1182 15.1005C55.7123 14.8474 56.0086 14.4534 56.0086 13.9181C56.0086 13.2661 55.7827 12.816 55.3302 12.5679C54.8777 12.3197 54.2132 12.1957 53.3374 12.1957C52.355 12.1957 51.6592 12.4389 51.2506 12.9255C50.9584 13.2856 50.7639 13.7721 50.6663 14.3852H46.6522C46.7401 12.9936 47.1291 11.8502 47.8201 10.9549C48.9197 9.55358 50.8071 8.85291 53.4839 8.85291C55.2256 8.85291 56.7728 9.1984 58.1255 9.88931C59.4781 10.5803 60.1544 11.8843 60.1544 13.8014V21.0999C60.1544 21.6059 60.1642 22.219 60.1837 22.9391C60.213 23.4841 60.2953 23.8539 60.4319 24.0485C60.5679 24.2431 60.7722 24.4037 61.0448 24.5302V25.1432H56.5197C56.3935 24.8221 56.3056 24.5204 56.2568 24.2382C56.2087 23.956 56.1697 23.6349 56.1404 23.2748C55.5659 23.8977 54.9042 24.428 54.1553 24.8659C53.26 25.3817 52.2476 25.6395 51.1188 25.6395C49.679 25.6395 48.4888 25.2284 47.5496 24.4061C46.6111 23.5838 46.1411 22.4184 46.1411 20.9101C46.1411 18.9541 46.8956 17.5382 48.4037 16.6624C49.2313 16.1855 50.4473 15.8449 52.0531 15.6406L53.4692 15.4654ZM68.0954 25.1432H63.9349V3.62717H68.0954V25.1432ZM70.5184 12.3416V9.37843H72.737V4.94093H76.8536V9.37843H79.4369V12.3416H76.8536V20.7495C76.8536 21.4015 76.9365 21.8078 77.1018 21.9684C77.267 22.1289 77.7732 22.2093 78.6197 22.2093C78.7466 22.2093 78.8798 22.2068 79.0213 22.202C79.1621 22.1971 79.3009 22.1897 79.4369 22.1801V25.2892L77.4664 25.3622C75.5009 25.4304 74.158 25.0897 73.4377 24.3404C72.9706 23.8636 72.737 23.1289 72.737 22.1363V12.3416H70.5184ZM90.8815 8.82377C91.8639 8.82377 92.7571 8.99404 93.5596 9.33464C94.3629 9.67525 95.0218 10.1959 95.5377 10.8966C95.9756 11.4901 96.2433 12.1008 96.3403 12.7284C96.4379 13.3561 96.4867 14.3804 96.4867 15.8011V25.1432H92.239V15.4654C92.239 14.6091 92.0926 13.9181 91.8012 13.3926C91.4212 12.6531 90.7009 12.2832 89.6404 12.2832C88.5408 12.2832 87.7062 12.6506 87.1373 13.3853C86.5676 14.1201 86.2831 15.1686 86.2831 16.531V25.1432H82.1373V3.70018H86.2831V11.3052C86.8863 10.3807 87.5849 9.73605 88.3777 9.37111C89.1712 9.00617 90.0058 8.82377 90.8815 8.82377Z" fill="white"/>
</svg>
